<svg version="1.1" id="Layer_1" xmlns="http://www.w3.org/2000/svg" xmlns:xlink="http://www.w3.org/1999/xlink" x="0px" y="0px"
	 width="100%" viewBox="0 0 551 375" enable-background="new 0 0 551 375" xml:space="preserve">
<path fill="#000000" opacity="1.000000" stroke="none" 
	d="
M362.000000,376.000000 
	C241.333328,376.000000 121.166664,376.000000 1.000000,376.000000 
	C1.000000,251.000000 1.000000,126.000000 1.000000,1.000000 
	C184.666672,1.000000 368.333344,1.000000 552.000000,1.000000 
	C552.000000,126.000000 552.000000,251.000000 552.000000,376.000000 
	C488.833344,376.000000 425.666656,376.000000 362.000000,376.000000 
M367.586304,239.977005 
	C367.752563,239.671066 367.918793,239.365128 367.998871,239.014206 
	C367.998871,239.014206 368.084229,239.067780 368.705261,238.877441 
	C368.855560,238.257019 369.005859,237.636581 369.748840,236.789505 
	C370.211609,235.870453 370.674377,234.951401 371.579224,233.911346 
	C371.862762,233.735931 372.013916,233.481781 372.597015,232.902176 
	C373.015503,232.258865 373.433960,231.615555 374.057983,230.456589 
	C374.386475,230.021301 374.714966,229.586014 375.616028,228.909546 
	C376.035156,228.263245 376.454285,227.616943 376.996765,226.509766 
	C376.996765,226.509766 377.120300,226.048050 377.336029,226.028061 
	C377.336029,226.028061 377.454254,225.846542 378.013580,225.443069 
	C378.369232,224.654755 378.724884,223.866455 379.693542,222.828339 
	C380.186249,221.899887 380.678955,220.971436 381.811920,219.665009 
	C383.149750,216.114349 384.487579,212.563690 385.987885,208.533310 
	C386.024414,208.368500 386.060974,208.203674 386.711212,207.713547 
	C395.913239,193.869049 398.303070,177.931870 399.853027,161.999619 
	C401.196747,148.187668 399.413147,134.338348 395.849915,120.930214 
	C391.774078,105.593147 385.245636,91.306152 375.000275,78.996902 
	C375.000275,78.996902 375.082947,78.980980 374.919708,78.462578 
	C374.617737,78.282700 374.315735,78.102821 374.001556,77.999229 
	C374.001556,77.999229 374.073669,77.971329 373.982208,77.262016 
	C368.664734,71.485878 363.347290,65.709747 357.999512,59.998512 
	C357.999512,59.998512 358.065094,59.971428 357.823395,59.335091 
	C352.893158,55.529800 347.962921,51.724510 342.998627,47.996166 
	C342.998627,47.996166 343.075653,47.964405 342.842316,47.343071 
	C341.905518,46.868458 340.968719,46.393841 339.998688,45.996456 
	C339.998688,45.996456 340.074677,45.962444 339.803131,45.310066 
	C335.880951,43.179226 331.958801,41.048386 327.996979,38.994511 
	C327.996979,38.994511 328.073547,38.958561 327.765350,38.286747 
	C325.654724,37.466675 323.461334,36.811386 321.446777,35.799976 
	C307.640991,28.868797 292.767578,25.996927 277.586365,25.131409 
	C261.115906,24.192381 245.050171,25.914034 229.151810,31.643528 
	C212.323334,37.708229 197.222595,46.283817 183.895889,57.791183 
	C170.502914,69.355766 160.302689,83.684639 153.085022,99.888107 
	C150.211548,106.338974 148.405350,113.265251 145.758575,120.679161 
	C145.152557,123.438797 144.546539,126.198433 143.199265,129.277924 
	C142.894547,135.126770 138.994781,140.834686 142.042496,146.814941 
	C142.548569,146.849838 143.054642,146.884735 143.560715,146.919632 
	C143.753220,143.304840 143.945709,139.690033 144.722549,135.781860 
	C145.853760,134.230774 146.984970,132.679703 148.782928,130.754944 
	C149.885193,127.174797 150.987473,123.594650 152.018463,120.010406 
	C152.018463,120.010406 152.049149,120.074867 152.670776,119.880219 
	C152.810989,119.258781 152.951218,118.637337 153.019135,118.011688 
	C153.019135,118.011688 153.053268,118.075577 153.671509,117.876427 
	C153.811447,117.256294 153.951401,116.636162 154.018463,116.011139 
	C154.018463,116.011139 154.056381,116.073586 154.673904,115.874397 
	C154.812744,115.254524 154.951584,114.634659 155.018356,114.010780 
	C155.018356,114.010780 155.053604,114.073776 155.675262,113.875916 
	C155.812958,113.252167 155.950653,112.628418 156.017883,112.014160 
	C156.017883,112.014160 156.047058,112.079002 156.667694,111.876251 
	C156.807541,111.252678 156.947372,110.629105 157.015152,110.010368 
	C157.015152,110.010368 157.026001,110.081772 157.567291,109.967728 
	C157.740494,109.658958 157.913696,109.350182 158.007935,109.009407 
	C158.007935,109.009407 158.063843,109.073723 158.675156,108.864799 
	C158.813507,108.246826 158.951859,107.628860 159.017868,107.014412 
	C159.017868,107.014412 159.058304,107.074501 159.591278,106.947571 
	C159.682083,106.632179 159.772873,106.316795 160.007553,105.522636 
	C160.007553,105.522636 160.084152,105.028610 160.015289,105.013306 
	C160.015289,105.013306 160.030350,105.082222 160.572418,104.969101 
	C160.743607,104.659378 160.914810,104.349655 161.008682,104.009987 
	C161.008682,104.009987 161.060913,104.074379 161.678497,103.873589 
	C161.814880,103.252563 161.951263,102.631538 162.016418,102.011681 
	C162.016418,102.011681 162.030380,102.081543 162.571091,101.966431 
	C162.742722,101.656837 162.914368,101.347244 163.009995,101.010735 
	C163.009995,101.010735 163.058456,101.075180 163.693024,100.876968 
	C164.157227,99.932632 164.621429,98.988289 165.016541,98.012665 
	C165.016541,98.012665 165.041031,98.084442 165.579132,97.969574 
	C165.748138,97.660896 165.917160,97.352226 166.007019,97.009254 
	C166.007019,97.009254 166.063843,97.074158 166.681015,96.871483 
	C166.815750,96.249832 166.950485,95.628189 167.013809,95.011703 
	C167.013809,95.011703 167.027588,95.081947 167.566330,94.959618 
	C167.738754,94.650658 167.911179,94.341698 168.014572,94.014420 
	C168.014572,94.014420 168.033768,94.083214 168.574234,93.969223 
	C168.744919,93.659691 168.915588,93.350166 169.015488,93.015549 
	C169.015488,93.015549 169.041748,93.085907 169.579865,92.967751 
	C169.747787,92.658203 169.915695,92.348648 170.013458,92.013184 
	C170.013458,92.013184 170.042480,92.082123 170.548920,91.939178 
	C170.657562,91.636520 170.766220,91.333870 171.172882,90.400795 
	C180.286346,78.491737 192.321243,70.144440 205.250046,63.063728 
	C217.038940,56.607285 229.785980,53.182201 243.071625,50.728096 
	C259.655975,47.664658 275.880402,48.667805 291.879822,52.548557 
	C310.162781,56.983200 326.399261,65.655533 340.868439,78.086464 
	C355.389648,90.562103 365.609222,105.717102 373.196899,123.680824 
	C374.189209,125.450424 375.181519,127.220024 376.025391,129.655075 
	C376.068939,130.105179 376.112488,130.555283 376.267426,131.753952 
	C384.319763,155.719315 384.285187,179.875275 376.861176,203.844986 
	C373.774750,213.810013 368.933197,223.231415 364.930664,232.935944 
	C364.930664,232.935944 364.928864,232.882278 364.353149,233.090988 
	C363.942871,233.740570 363.532593,234.390152 362.995270,235.423737 
	C362.995270,235.423737 362.961426,235.826797 362.344940,236.109375 
	C361.484741,237.386353 360.624512,238.663330 359.360229,240.039627 
	C359.078735,240.197983 358.971222,240.435196 358.508362,241.000641 
	C358.310730,241.317856 358.113098,241.635071 357.980408,241.982559 
	C357.980408,241.982559 357.989929,241.911530 357.392059,242.082031 
	C357.118134,242.394318 356.844177,242.706589 356.249115,243.009903 
	C356.018372,243.127975 355.943573,243.310089 355.462463,243.995773 
	C355.325897,244.418793 355.189331,244.841827 354.892029,245.420547 
	C354.892029,245.420547 355.015442,245.607208 354.527496,245.980255 
	C354.321533,246.315643 354.115540,246.651047 353.981567,246.981323 
	C353.981567,246.981323 353.947479,246.917709 353.424225,247.056580 
	C353.235016,247.354782 353.045807,247.652985 352.390533,248.046249 
	C352.085236,248.225632 351.939758,248.492218 351.327240,249.126816 
	C349.390778,251.384323 347.454346,253.641830 345.517883,255.899353 
	C345.849884,256.113800 346.181885,256.328278 346.513885,256.542725 
	C348.339996,255.302658 350.166107,254.062576 352.708923,252.971527 
	C354.498413,251.667633 356.287872,250.363754 358.010773,249.010513 
	C358.010773,249.010513 358.041107,249.087631 358.573029,248.958069 
	C358.744385,248.651123 358.915771,248.344162 359.016724,248.016556 
	C359.016724,248.016556 359.037964,248.086792 359.571869,247.958572 
	C359.743408,247.650650 359.914917,247.342728 360.016418,247.016281 
	C360.016418,247.016281 360.035614,247.086136 360.570648,246.959259 
	C360.742584,246.651123 360.914520,246.342987 361.009186,246.021606 
	C361.009186,246.021606 361.059052,246.082108 361.637695,245.914932 
	C362.117859,245.294250 362.598022,244.673569 363.004456,244.006149 
	C363.004456,244.006149 363.057098,244.075790 363.636383,243.915863 
	C364.115601,243.298813 364.594849,242.681747 365.010742,242.007950 
	C365.010742,242.007950 365.040009,242.087753 365.571777,241.959930 
	C365.743713,241.654007 365.915649,241.348083 366.016510,241.016479 
	C366.016510,241.016479 366.042023,241.087662 366.571289,240.958557 
	C366.743469,240.654083 366.915649,240.349594 367.013458,240.014648 
	C367.013458,240.014648 367.051880,240.085281 367.586304,239.977005 
M217.987640,161.990967 
	C217.987640,161.990967 217.965317,161.918442 217.265518,162.432526 
	C216.843597,174.970291 216.167526,187.506256 216.078751,200.046387 
	C216.005371,210.412506 216.607544,220.784195 216.980896,231.150894 
	C217.005280,231.828247 217.632401,232.483887 217.997742,233.907196 
	C218.759109,239.480026 226.092453,244.902557 231.821304,243.868607 
	C237.409180,242.860077 242.959686,241.617996 248.489594,240.320694 
	C258.142883,238.056061 267.781158,235.723373 277.395874,233.300949 
	C280.050934,232.632004 281.750641,233.112823 282.899078,235.791824 
	C286.521881,244.242798 290.192902,252.675995 294.033173,261.029724 
	C296.409271,266.198456 298.481506,271.704926 301.884399,276.144409 
	C304.901947,280.081116 315.510040,280.226837 319.103638,277.532501 
	C324.823853,273.243683 326.485840,266.721344 323.524048,259.945129 
	C316.481506,243.832520 309.429291,227.724091 302.349030,211.628021 
	C299.830750,205.903061 293.699249,202.539124 287.558411,203.572479 
	C283.642609,204.231415 279.752960,205.063904 275.874023,205.920364 
	C265.308868,208.253159 254.755630,210.640030 244.020844,212.082153 
	C244.016602,197.497833 244.041336,182.913376 243.964111,168.329437 
	C243.956223,166.839310 243.336914,165.352417 243.047821,163.153290 
	C239.010239,152.104080 224.504822,150.839920 218.399078,160.131622 
	C218.237442,160.757782 218.075821,161.383942 217.987640,161.990967 
M407.844604,195.572998 
	C403.548737,204.909637 399.517151,214.379181 394.902771,223.555679 
	C384.800720,243.645401 369.936859,259.718506 351.897888,272.915955 
	C337.824860,283.211884 322.452118,291.121399 305.306458,294.542572 
	C292.440216,297.109802 279.324860,299.158997 266.249329,299.690796 
	C257.483795,300.047272 248.611099,297.215363 239.755814,296.040253 
	C224.675171,294.039032 211.187973,287.872009 198.126068,280.515472 
	C183.081818,272.042480 170.187210,261.073242 159.301117,247.644638 
	C151.502106,238.024139 145.136276,227.657578 139.779007,216.450790 
	C126.519203,188.712860 124.179359,159.711273 129.098175,129.927475 
	C132.719284,108.001457 141.697449,88.168610 155.147095,70.413055 
	C157.677155,67.073013 160.118729,63.665936 163.258133,59.396244 
	C141.516724,60.893234 106.979279,128.656754 105.928360,168.491058 
	C103.773270,250.178665 162.497391,322.183868 250.143494,327.649384 
	C323.649139,332.233063 391.934509,284.551544 408.972046,205.074951 
	C410.987396,197.525009 412.974915,189.972778 411.598145,182.144318 
	C411.118988,182.082565 410.639801,182.020813 410.160645,181.959061 
	C409.478851,186.280197 408.797058,190.601334 407.844604,195.572998 
M196.520676,265.988342 
	C199.290726,267.982697 201.844299,270.424072 204.870422,271.889679 
	C214.936874,276.765015 225.426575,279.042816 236.852570,278.135590 
	C250.751205,277.032104 262.129120,271.145996 272.246918,262.202576 
	C274.932129,259.829041 277.283264,256.971405 279.314148,254.011154 
	C280.245117,252.654099 280.517273,250.396042 280.133820,248.771896 
	C279.936127,247.934509 277.668762,247.163879 276.301117,247.097870 
	C270.492279,246.817551 265.285522,248.215317 261.394165,253.030411 
	C260.167755,254.547958 258.553802,255.796417 256.974457,256.977020 
	C249.865097,262.291443 241.644058,263.325806 233.014221,264.256744 
	C221.088837,265.543121 211.757324,261.142059 203.328217,253.764175 
	C192.481522,244.270233 187.950531,232.127533 189.014557,217.773285 
	C189.849396,206.511139 193.846405,196.898438 202.838898,189.674576 
	C203.712433,188.972824 204.758270,188.022446 204.963837,187.030014 
	C206.030258,181.881332 206.849808,176.681549 207.755356,171.499557 
	C207.022781,171.156540 206.290192,170.813522 205.557602,170.470505 
	C191.785248,177.710632 182.204971,188.799545 176.699615,203.660278 
	C168.396973,226.071869 179.088013,253.556351 196.520676,265.988342 
M238.927429,105.952759 
	C232.335434,105.795631 225.743423,105.398773 220.215897,110.199600 
	C210.637726,118.518562 210.301025,131.242523 219.605103,141.128281 
	C228.992218,151.102280 248.457748,148.473770 253.979141,133.553574 
	C258.027649,122.613464 252.205383,111.139908 238.927429,105.952759 
M128.584839,362.000763 
	C134.295151,362.001709 140.012833,361.845581 145.710648,362.112946 
	C147.153259,362.180634 149.577133,363.413330 149.757050,364.428497 
	C150.473038,368.468018 152.549011,370.577209 156.489227,369.862000 
	C160.843307,369.071655 160.122437,365.522278 159.602722,362.000214 
	C161.175095,362.000214 162.669800,361.856476 164.127411,362.028015 
	C168.020920,362.486145 169.792892,360.328949 169.917709,356.925690 
	C170.141663,350.819000 169.980881,344.698212 169.980881,338.369080 
	C168.133698,338.369080 166.773132,338.369080 164.997559,338.369080 
	C164.997559,343.823639 164.849869,348.956207 165.043381,354.075897 
	C165.203751,358.318817 163.606613,359.793640 160.282120,358.163239 
	C159.547760,355.524078 158.819778,352.081970 157.061401,351.433441 
	C153.915329,350.273010 151.057556,352.212189 149.953873,355.780701 
	C149.856857,356.094391 149.763657,356.411194 149.638153,356.713898 
	C148.424454,359.640991 146.760040,359.576477 144.890503,357.353882 
	C143.834442,356.098358 143.065430,354.567474 141.889465,353.453766 
	C139.380203,351.077332 134.994537,351.728607 133.247726,354.572144 
	C129.619614,360.478149 129.619583,360.478149 125.469543,355.041992 
	C122.656303,351.356964 118.081978,350.453705 115.888779,353.853485 
	C113.033897,358.279022 108.443588,362.328308 110.127716,368.623047 
	C110.209061,368.927094 110.400047,369.201782 110.722313,369.865936 
	C111.943665,369.809052 113.311584,369.745331 114.780151,369.676910 
	C114.956345,366.978394 115.105087,364.700134 115.210861,363.080139 
	C119.624405,362.697845 123.643600,362.349701 128.584839,362.000763 
M288.073212,362.084839 
	C291.244232,361.789581 293.724274,361.706787 294.386902,366.191711 
	C294.911316,369.741180 299.868835,371.426849 302.254456,369.081238 
	C303.739746,367.620819 303.780518,364.691223 304.556458,362.134735 
	C309.664642,362.134735 315.378662,361.878540 321.060242,362.198883 
	C328.334930,362.609009 331.444885,359.355194 329.899628,352.160645 
	C329.727142,351.357361 328.565125,350.766571 327.862000,350.077240 
	C327.246674,350.857666 326.330139,351.552032 326.077606,352.436096 
	C325.519958,354.387970 325.296692,356.435364 324.937012,358.443756 
	C324.463135,358.588104 323.989288,358.732452 323.515442,358.876801 
	C322.816772,355.956482 323.720123,351.189606 318.560638,353.443146 
	C317.934509,355.161530 317.317596,356.854553 316.439484,359.264496 
	C315.471069,357.623932 315.059784,356.735321 314.474335,355.982056 
	C313.675507,354.954346 312.744049,354.029755 311.869476,353.060944 
	C311.215912,353.994995 310.724518,355.127625 309.874786,355.821472 
	C308.138458,357.239349 306.209442,358.421295 304.359741,359.700378 
	C304.321136,355.376923 304.668427,351.790558 300.782166,351.369995 
	C298.716827,351.146515 296.224396,353.664886 294.144836,355.236755 
	C292.926636,356.157532 292.141296,357.650940 291.161224,358.886780 
	C290.108002,357.229767 288.376770,355.662262 288.143646,353.896942 
	C287.668335,350.297577 288.187683,346.577606 287.914948,342.935913 
	C287.791321,341.285034 286.755920,339.702393 286.134125,338.088806 
	C285.422882,339.779480 284.207336,341.438202 284.097748,343.166992 
	C283.803497,347.809540 284.112762,352.487061 283.933319,357.141113 
	C283.777924,361.170746 280.657654,363.093079 277.394287,363.300323 
	C276.147675,363.379486 274.679932,359.976837 273.312988,358.160889 
	C270.919067,356.260864 269.866211,357.591766 269.933624,360.959015 
	C270.016693,365.112183 272.728516,366.313293 275.942657,366.944122 
	C280.660126,367.869904 284.329742,365.853546 288.073212,362.084839 
M372.582550,361.045013 
	C383.794769,362.678345 394.991943,364.272186 404.570831,355.824219 
	C406.608765,354.026794 406.719452,352.381927 403.990692,351.556458 
	C400.437683,350.481598 396.781738,349.680939 393.120514,349.049805 
	C390.002686,348.512360 389.414764,350.136993 390.338684,352.485992 
	C392.960602,353.069305 395.286163,353.586670 397.611755,354.104034 
	C397.682587,354.788788 397.753448,355.473572 397.824310,356.158325 
	C394.381531,357.024597 390.957397,358.348206 387.485046,358.489990 
	C386.384064,358.534943 385.154419,355.427917 383.316895,352.815308 
	C382.732666,353.468445 381.917633,354.509613 380.968445,355.409210 
	C379.672821,356.637085 378.274933,357.757111 376.920898,358.923401 
	C376.280548,357.408783 375.174408,355.920197 375.088074,354.374634 
	C374.838257,349.903076 374.915588,345.406616 375.024841,340.923828 
	C375.107971,337.514496 373.539093,337.543365 370.558441,338.828247 
	C371.022705,346.029236 371.486298,353.219879 372.582550,361.045013 
M237.020599,351.528961 
	C237.830292,353.335358 239.784485,355.929962 239.201172,356.777039 
	C238.129135,358.333649 235.563019,358.861359 232.455292,360.391113 
	C233.682831,361.326782 234.788971,362.889374 235.873764,362.874695 
	C241.124283,362.803680 246.408676,362.569641 251.588303,361.782715 
	C252.898788,361.583618 254.759155,359.191406 254.840927,357.722046 
	C255.198502,351.297241 254.994843,344.841248 254.994843,338.396545 
	C254.493195,338.124573 253.991547,337.852600 253.489899,337.580627 
	C252.660629,338.694000 251.198853,339.762512 251.116135,340.928833 
	C250.822968,345.062225 250.950195,349.229919 251.020004,353.382874 
	C251.059097,355.709167 251.324661,358.616333 248.377701,358.656830 
	C246.913513,358.676880 245.005676,356.376862 244.016861,354.702271 
	C242.035492,351.346741 240.850708,347.225037 235.189789,349.532471 
	C235.682175,350.081665 236.094620,350.541687 237.020599,351.528961 
M202.967834,362.526367 
	C196.962982,364.214996 198.298416,359.435120 197.597565,354.749725 
	C195.531555,356.587646 193.511871,357.511261 193.159195,358.868195 
	C192.243469,362.391388 194.011826,365.211273 197.556915,365.858307 
	C200.611343,366.415771 203.973206,366.492615 206.974121,365.802887 
	C210.010941,365.104889 213.879715,363.572357 213.482788,359.807343 
	C213.282196,357.904877 210.009018,356.312073 208.093796,354.614532 
	C207.602142,354.178772 206.991898,353.876831 206.436142,353.513397 
	C206.532471,353.260315 206.628799,353.007202 206.725128,352.754120 
	C209.071075,353.169434 211.417038,353.584747 214.049606,354.050781 
	C213.717697,349.442932 211.173401,348.440277 208.138916,349.114410 
	C205.988434,349.592224 202.810287,350.686371 202.277695,352.250183 
	C200.469299,357.559845 206.318192,357.278351 209.376877,360.269318 
	C207.150925,360.976471 205.397903,361.533386 202.967834,362.526367 
M221.187271,364.967712 
	C218.987320,365.471619 216.787384,365.975555 213.631302,366.698517 
	C214.345917,367.818420 215.310532,369.925140 215.684769,369.825073 
	C219.656952,368.762390 224.681412,368.381134 227.084671,365.712555 
	C229.084381,363.492065 228.392502,358.441040 228.122589,354.699310 
	C227.860687,351.068848 224.520676,351.742798 222.244980,352.142944 
	C219.830887,352.567505 216.906158,353.797333 218.142792,356.978760 
	C219.121445,359.496429 221.360641,361.524109 223.088669,363.834351 
	C223.244949,363.734253 222.579132,364.160645 221.187271,364.967712 
M335.005371,359.144409 
	C335.809540,360.067444 336.613739,360.990479 337.417908,361.913513 
	C337.944031,360.876923 338.890320,359.854034 338.924652,358.801392 
	C339.086792,353.833191 338.999725,348.856842 339.000610,343.883392 
	C339.001343,339.803040 339.000763,335.722687 339.000763,331.497803 
	C333.737183,330.399536 331.933289,331.986389 333.214569,337.061157 
	C334.018372,340.244720 334.678741,343.510132 334.931030,346.775330 
	C335.223907,350.565704 334.999756,354.395996 335.005371,359.144409 
M354.605072,351.961853 
	C354.134613,354.122437 353.022614,356.378235 353.326141,358.423981 
	C353.975708,362.802124 356.648407,363.979614 361.759094,362.969910 
	C366.140533,362.104248 366.891174,358.780548 365.849609,355.506866 
	C364.164215,350.209747 359.564728,350.674561 354.605072,351.961853 
M174.039368,360.083191 
	C175.400848,360.839569 176.762329,361.595947 178.730469,362.689331 
	C178.730469,353.681305 178.730469,346.107300 178.730469,338.545837 
	C175.384735,337.362488 173.858917,338.092316 173.960098,341.710541 
	C174.122620,347.522644 174.006607,353.342560 174.039368,360.083191 
z"/>
<path fill="#536669" opacity="1.000000" stroke="none" 
	d="
M408.891632,205.885574 
	C391.934509,284.551544 323.649139,332.233063 250.143494,327.649384 
	C162.497391,322.183868 103.773270,250.178665 105.928360,168.491058 
	C106.979279,128.656754 141.516724,60.893234 163.258133,59.396244 
	C160.118729,63.665936 157.677155,67.073013 155.147095,70.413055 
	C141.697449,88.168610 132.719284,108.001457 129.098175,129.927475 
	C124.179359,159.711273 126.519203,188.712860 139.779007,216.450790 
	C145.136276,227.657578 151.502106,238.024139 159.301117,247.644638 
	C170.187210,261.073242 183.081818,272.042480 198.126068,280.515472 
	C211.187973,287.872009 224.675171,294.039032 239.755814,296.040253 
	C248.611099,297.215363 257.483795,300.047272 266.249329,299.690796 
	C279.324860,299.158997 292.440216,297.109802 305.306458,294.542572 
	C322.452118,291.121399 337.824860,283.211884 351.897888,272.915955 
	C369.936859,259.718506 384.800720,243.645401 394.902771,223.555679 
	C399.517151,214.379181 403.548737,204.909637 408.291443,195.501862 
	C408.789398,198.915665 408.840515,202.400620 408.891632,205.885574 
z"/>
<path fill="#24C6B7" opacity="1.000000" stroke="none" 
	d="
M386.097504,208.038864 
	C386.060974,208.203674 386.024414,208.368500 385.580627,208.843262 
	C383.425476,212.747772 381.677521,216.342316 379.729797,220.065643 
	C379.276459,220.395401 379.081512,220.642593 378.570190,220.959518 
	C375.238617,221.074326 374.017639,222.151810 375.908997,225.264801 
	C375.917114,225.705902 375.929169,225.882095 375.928589,226.239197 
	C375.916016,226.420135 375.856537,226.777985 375.633850,226.828308 
	C375.411194,226.878632 374.963440,226.967758 374.624634,226.968933 
	C373.197632,226.309402 372.109375,225.648697 371.094574,224.652557 
	C374.426697,216.596680 378.603394,209.121506 380.745667,201.102798 
	C384.734924,186.170670 386.568420,170.799332 383.876495,155.368347 
	C382.443695,147.155090 379.998871,139.118378 378.216675,130.823303 
	C377.966339,130.093170 377.510132,129.541702 377.039825,128.660126 
	C377.016052,127.889595 377.006378,127.449150 377.001709,126.636719 
	C376.348511,125.167862 375.690308,124.070999 375.024536,122.978683 
	C375.016937,122.983231 375.018982,122.977829 375.015137,122.580826 
	C372.404388,110.336021 365.117157,100.710594 357.813110,91.914276 
	C346.723846,78.559387 333.932495,66.487534 317.518402,59.285027 
	C312.436890,57.055264 307.713593,53.521706 302.433197,52.336594 
	C292.133942,50.025085 281.943298,47.305412 271.202789,46.549129 
	C259.792908,45.745708 248.751907,46.276546 237.673523,48.626637 
	C221.637222,52.028458 206.696243,58.145107 193.111496,67.285919 
	C187.331985,71.174812 181.613235,75.390633 176.727600,80.312294 
	C170.428238,86.658096 164.958603,93.832840 159.209045,100.715256 
	C157.835251,102.359749 156.767944,104.260300 155.559677,106.043076 
	C155.000473,105.719986 154.441269,105.396896 153.882065,105.073807 
	C156.517975,99.688820 158.514069,93.851753 161.929642,89.017639 
	C168.096664,80.289398 174.711258,71.795135 181.906754,63.903194 
	C187.179276,58.120384 193.075012,52.411312 199.773666,48.538643 
	C209.934677,42.664295 220.780960,37.717899 231.817764,33.700535 
	C240.035782,30.709204 248.941360,29.065065 257.677917,28.188919 
	C266.837006,27.270401 276.226685,27.296099 285.391113,28.188093 
	C293.660248,28.992952 301.775055,31.465006 309.931702,33.317410 
	C316.119293,34.722630 321.034576,40.253586 328.073547,38.958561 
	C328.073547,38.958561 327.996979,38.994511 328.058838,39.303295 
	C332.105347,41.728870 336.089996,43.845657 340.074677,45.962444 
	C340.074677,45.962444 339.998688,45.996456 340.064880,46.308708 
	C341.112610,47.068775 342.094116,47.516594 343.075653,47.964409 
	C343.075653,47.964405 342.998627,47.996166 343.046021,48.309082 
	C348.083984,52.405140 353.074524,56.188286 358.065094,59.971428 
	C358.065094,59.971428 357.999512,59.998512 358.010071,60.334473 
	C359.854095,63.110989 361.476807,65.752579 363.569244,67.946098 
	C366.906433,71.444550 370.556122,74.644913 374.073669,77.971329 
	C374.073669,77.971329 374.001556,77.999229 374.119507,78.197342 
	C374.519257,78.590630 374.801117,78.785805 375.082947,78.980972 
	C375.082947,78.980980 375.000275,78.996902 375.009277,79.348373 
	C375.590088,81.596153 375.732300,83.790329 376.805908,85.338737 
	C382.347046,93.330254 387.113678,101.609123 389.304108,111.240128 
	C391.705750,121.799751 395.865845,132.176758 396.690338,142.832153 
	C398.364441,164.467896 395.726959,185.755371 385.474182,205.478790 
	C385.169159,206.065582 385.867157,207.173767 386.097504,208.038864 
z"/>
<path fill="#516568" opacity="1.000000" stroke="none" 
	d="
M244.197678,213.005478 
	C254.755630,210.640030 265.308868,208.253159 275.874023,205.920364 
	C279.752960,205.063904 283.642609,204.231415 287.558411,203.572479 
	C293.699249,202.539124 299.830750,205.903061 302.349030,211.628021 
	C309.429291,227.724091 316.481506,243.832520 323.524048,259.945129 
	C326.485840,266.721344 324.823853,273.243683 319.103638,277.532501 
	C315.510040,280.226837 304.901947,280.081116 301.884399,276.144409 
	C298.481506,271.704926 296.409271,266.198456 294.033173,261.029724 
	C290.192902,252.675995 286.521881,244.242798 282.899078,235.791824 
	C281.750641,233.112823 280.050934,232.632004 277.395874,233.300949 
	C267.781158,235.723373 258.142883,238.056061 248.489594,240.320694 
	C242.959686,241.617996 237.409180,242.860077 231.821304,243.868607 
	C226.092453,244.902557 218.759109,239.480026 218.049301,233.052673 
	C218.055679,208.771576 218.010498,185.345001 217.965317,161.918442 
	C217.965317,161.918442 217.987640,161.990967 218.247147,161.846863 
	C218.663940,161.073395 218.821228,160.444031 218.978500,159.814651 
	C224.504822,150.839920 239.010239,152.104080 242.993713,163.985489 
	C242.962082,179.243988 242.946823,193.670593 243.059036,208.096191 
	C243.071793,209.735474 243.800781,211.369186 244.197678,213.005478 
z"/>
<path fill="#33C3B5" opacity="1.000000" stroke="none" 
	d="
M196.264359,265.730652 
	C179.088013,253.556351 168.396973,226.071869 176.699615,203.660278 
	C182.204971,188.799545 191.785248,177.710632 205.557602,170.470505 
	C206.290192,170.813522 207.022781,171.156540 207.755356,171.499557 
	C206.849808,176.681549 206.030258,181.881332 204.963837,187.030014 
	C204.758270,188.022446 203.712433,188.972824 202.838898,189.674576 
	C193.846405,196.898438 189.849396,206.511139 189.014557,217.773285 
	C187.950531,232.127533 192.481522,244.270233 203.328217,253.764175 
	C211.757324,261.142059 221.088837,265.543121 233.014221,264.256744 
	C241.644058,263.325806 249.865097,262.291443 256.974457,256.977020 
	C258.553802,255.796417 260.167755,254.547958 261.394165,253.030411 
	C265.285522,248.215317 270.492279,246.817551 276.301117,247.097870 
	C277.668762,247.163879 279.936127,247.934509 280.133820,248.771896 
	C280.517273,250.396042 280.245117,252.654099 279.314148,254.011154 
	C277.283264,256.971405 274.932129,259.829041 272.246918,262.202576 
	C262.129120,271.145996 250.751205,277.032104 236.852570,278.135590 
	C225.426575,279.042816 214.936874,276.765015 204.870422,271.889679 
	C201.844299,270.424072 199.290726,267.982697 196.264359,265.730652 
z"/>
<path fill="#526668" opacity="1.000000" stroke="none" 
	d="
M239.357651,105.986252 
	C252.205383,111.139908 258.027649,122.613464 253.979141,133.553574 
	C248.457748,148.473770 228.992218,151.102280 219.605103,141.128281 
	C210.301025,131.242523 210.637726,118.518562 220.215897,110.199600 
	C225.743423,105.398773 232.335434,105.795631 239.357651,105.986252 
z"/>
<path fill="#45BFB2" opacity="1.000000" stroke="none" 
	d="
M327.919434,38.622654 
	C321.034576,40.253586 316.119293,34.722630 309.931702,33.317410 
	C301.775055,31.465006 293.660248,28.992952 285.391113,28.188093 
	C276.226685,27.296099 266.837006,27.270401 257.677917,28.188919 
	C248.941360,29.065065 240.035782,30.709204 231.817764,33.700535 
	C220.780960,37.717899 209.934677,42.664295 199.773666,48.538643 
	C193.075012,52.411312 187.179276,58.120384 181.906754,63.903194 
	C174.711258,71.795135 168.096664,80.289398 161.929642,89.017639 
	C158.514069,93.851753 156.517975,99.688820 153.882065,105.073807 
	C154.441269,105.396896 155.000473,105.719986 155.559677,106.043076 
	C156.767944,104.260300 157.835251,102.359749 159.209045,100.715256 
	C164.958603,93.832840 170.428238,86.658096 176.727600,80.312294 
	C181.613235,75.390633 187.331985,71.174812 193.111496,67.285919 
	C206.696243,58.145107 221.637222,52.028458 237.673523,48.626637 
	C248.751907,46.276546 259.792908,45.745708 271.202789,46.549129 
	C281.943298,47.305412 292.133942,50.025085 302.433197,52.336594 
	C307.713593,53.521706 312.436890,57.055264 317.518402,59.285027 
	C333.932495,66.487534 346.723846,78.559387 357.813110,91.914276 
	C365.117157,100.710594 372.404388,110.336021 374.703918,122.586777 
	C373.982361,122.992706 373.568176,122.995682 373.154022,122.998657 
	C365.609222,105.717102 355.389648,90.562103 340.868439,78.086464 
	C326.399261,65.655533 310.162781,56.983200 291.879822,52.548557 
	C275.880402,48.667805 259.655975,47.664658 243.071625,50.728096 
	C229.785980,53.182201 217.038940,56.607285 205.250046,63.063728 
	C192.321243,70.144440 180.286346,78.491737 170.759567,90.771622 
	C170.244995,91.455681 170.143738,91.768906 170.042480,92.082123 
	C170.042480,92.082123 170.013458,92.013184 169.729874,92.001328 
	C169.311432,92.354950 169.176590,92.720428 169.041748,93.085907 
	C169.041748,93.085907 169.015488,93.015549 168.738068,93.012878 
	C168.318344,93.367882 168.176056,93.725548 168.033768,94.083214 
	C168.033768,94.083214 168.014572,94.014420 167.742004,94.023315 
	C167.322159,94.382126 167.174881,94.732040 167.027588,95.081947 
	C167.027588,95.081947 167.013809,95.011703 166.718033,95.106430 
	C166.302780,95.825485 166.183304,96.449821 166.063843,97.074158 
	C166.063843,97.074158 166.007019,97.009254 165.726562,97.000381 
	C165.311096,97.355812 165.176056,97.720131 165.041031,98.084442 
	C165.041031,98.084442 165.016541,98.012665 164.680771,97.987282 
	C163.916153,98.999657 163.487305,100.037415 163.058456,101.075180 
	C163.058456,101.075180 163.009995,101.010735 162.736938,101.013992 
	C162.319382,101.372017 162.174881,101.726784 162.030380,102.081543 
	C162.030380,102.081543 162.016418,102.011681 161.716583,102.099350 
	C161.298141,102.816132 161.179520,103.445259 161.060913,104.074379 
	C161.060913,104.074379 161.008682,104.009987 160.735046,104.008728 
	C160.317734,104.365723 160.174042,104.723976 160.030350,105.082222 
	C160.030350,105.082222 160.015289,105.013306 159.763855,105.029068 
	C159.317688,105.359314 159.122955,105.673798 158.884109,106.269012 
	C158.912781,106.724670 158.985550,106.899590 159.058304,107.074501 
	C159.058304,107.074501 159.017868,107.014412 158.710068,107.093384 
	C158.289459,107.806152 158.176651,108.439934 158.063843,109.073723 
	C158.063843,109.073723 158.007935,109.009407 157.731003,108.994873 
	C157.311386,109.347481 157.168686,109.714630 157.026001,110.081772 
	C157.026001,110.081772 157.015152,110.010368 156.722015,110.099884 
	C156.301605,110.819260 156.174332,111.449135 156.047058,112.079002 
	C156.047058,112.079002 156.017883,112.014160 155.723419,112.107788 
	C155.303833,112.825539 155.178711,113.449661 155.053604,114.073776 
	C155.053604,114.073776 155.018356,114.010780 154.707275,114.080536 
	C154.282913,114.791389 154.169647,115.432487 154.056381,116.073586 
	C154.056381,116.073586 154.018463,116.011139 153.709930,116.078079 
	C153.285370,116.788544 153.169312,117.432060 153.053268,118.075577 
	C153.053268,118.075577 153.019135,118.011688 152.711792,118.078201 
	C152.286011,118.788101 152.167572,119.431480 152.049133,120.074867 
	C152.049149,120.074867 152.018463,120.010406 151.717468,120.074509 
	C150.586624,121.756783 149.756744,123.374939 148.583862,124.921066 
	C147.531662,123.224396 146.822464,121.599747 146.113281,119.975098 
	C148.405350,113.265251 150.211548,106.338974 153.085022,99.888107 
	C160.302689,83.684639 170.502914,69.355766 183.895889,57.791183 
	C197.222595,46.283817 212.323334,37.708229 229.151810,31.643528 
	C245.050171,25.914034 261.115906,24.192381 277.586365,25.131409 
	C292.767578,25.996927 307.640991,28.868797 321.446777,35.799976 
	C323.461334,36.811386 325.654724,37.466675 327.919434,38.622654 
z"/>
<path fill="#506267" opacity="1.000000" stroke="none" 
	d="
M128.123810,362.001160 
	C123.643600,362.349701 119.624405,362.697845 115.210861,363.080139 
	C115.105087,364.700134 114.956345,366.978394 114.780151,369.676910 
	C113.311584,369.745331 111.943665,369.809052 110.722313,369.865936 
	C110.400047,369.201782 110.209061,368.927094 110.127716,368.623047 
	C108.443588,362.328308 113.033897,358.279022 115.888779,353.853485 
	C118.081978,350.453705 122.656303,351.356964 125.469543,355.041992 
	C129.619583,360.478149 129.619614,360.478149 133.247726,354.572144 
	C134.994537,351.728607 139.380203,351.077332 141.889465,353.453766 
	C143.065430,354.567474 143.834442,356.098358 144.890503,357.353882 
	C146.760040,359.576477 148.424454,359.640991 149.638153,356.713898 
	C149.763657,356.411194 149.856857,356.094391 149.953873,355.780701 
	C151.057556,352.212189 153.915329,350.273010 157.061401,351.433441 
	C158.819778,352.081970 159.547760,355.524078 160.282120,358.163239 
	C163.606613,359.793640 165.203751,358.318817 165.043381,354.075897 
	C164.849869,348.956207 164.997559,343.823639 164.997559,338.369080 
	C166.773132,338.369080 168.133698,338.369080 169.980881,338.369080 
	C169.980881,344.698212 170.141663,350.819000 169.917709,356.925690 
	C169.792892,360.328949 168.020920,362.486145 164.127411,362.028015 
	C162.669800,361.856476 161.175095,362.000214 159.602722,362.000214 
	C160.122437,365.522278 160.843307,369.071655 156.489227,369.862000 
	C152.549011,370.577209 150.473038,368.468018 149.757050,364.428497 
	C149.577133,363.413330 147.153259,362.180634 145.710648,362.112946 
	C140.012833,361.845581 134.295151,362.001709 128.123810,362.001160 
z"/>
<path fill="#506367" opacity="1.000000" stroke="none" 
	d="
M287.695374,362.207428 
	C284.329742,365.853546 280.660126,367.869904 275.942657,366.944122 
	C272.728516,366.313293 270.016693,365.112183 269.933624,360.959015 
	C269.866211,357.591766 270.919067,356.260864 273.312988,358.160889 
	C274.679932,359.976837 276.147675,363.379486 277.394287,363.300323 
	C280.657654,363.093079 283.777924,361.170746 283.933319,357.141113 
	C284.112762,352.487061 283.803497,347.809540 284.097748,343.166992 
	C284.207336,341.438202 285.422882,339.779480 286.134155,338.088806 
	C286.755920,339.702393 287.791321,341.285034 287.914948,342.935913 
	C288.187683,346.577606 287.668335,350.297577 288.143646,353.896942 
	C288.376770,355.662262 290.108002,357.229767 291.161224,358.886780 
	C292.141296,357.650940 292.926636,356.157532 294.144836,355.236755 
	C296.224396,353.664886 298.716827,351.146515 300.782166,351.369995 
	C304.668427,351.790558 304.321136,355.376923 304.359741,359.700378 
	C306.209442,358.421295 308.138458,357.239349 309.874786,355.821472 
	C310.724518,355.127625 311.215912,353.994995 311.869476,353.060944 
	C312.744049,354.029755 313.675507,354.954346 314.474335,355.982056 
	C315.059784,356.735321 315.471069,357.623932 316.439484,359.264496 
	C317.317596,356.854553 317.934509,355.161530 318.560638,353.443146 
	C323.720123,351.189606 322.816772,355.956482 323.515442,358.876801 
	C323.989288,358.732452 324.463135,358.588104 324.937012,358.443756 
	C325.296692,356.435364 325.519958,354.387970 326.077606,352.436096 
	C326.330139,351.552032 327.246674,350.857666 327.862000,350.077240 
	C328.565125,350.766571 329.727142,351.357361 329.899628,352.160645 
	C331.444885,359.355194 328.334930,362.609009 321.060242,362.198883 
	C315.378662,361.878540 309.664642,362.134735 304.556458,362.134735 
	C303.780518,364.691223 303.739746,367.620819 302.254456,369.081238 
	C299.868835,371.426849 294.911316,369.741180 294.386902,366.191711 
	C293.724274,361.706787 291.244232,361.789581 287.695374,362.207428 
z"/>
<path fill="#45BFB2" opacity="1.000000" stroke="none" 
	d="
M386.404358,207.876205 
	C385.867157,207.173767 385.169159,206.065582 385.474182,205.478790 
	C395.726959,185.755371 398.364441,164.467896 396.690338,142.832153 
	C395.865845,132.176758 391.705750,121.799751 389.304108,111.240128 
	C387.113678,101.609123 382.347046,93.330254 376.805908,85.338737 
	C375.732300,83.790329 375.590088,81.596153 375.030212,79.311691 
	C385.245636,91.306152 391.774078,105.593147 395.849915,120.930214 
	C399.413147,134.338348 401.196747,148.187668 399.853027,161.999619 
	C398.303070,177.931870 395.913239,193.869049 386.404358,207.876205 
z"/>
<path fill="#21C7B7" opacity="1.000000" stroke="none" 
	d="
M372.266235,360.727753 
	C371.486298,353.219879 371.022705,346.029236 370.558441,338.828247 
	C373.539093,337.543365 375.107971,337.514496 375.024841,340.923828 
	C374.915588,345.406616 374.838257,349.903076 375.088074,354.374634 
	C375.174408,355.920197 376.280548,357.408783 376.920898,358.923401 
	C378.274933,357.757111 379.672821,356.637085 380.968445,355.409210 
	C381.917633,354.509613 382.732666,353.468445 383.316895,352.815308 
	C385.154419,355.427917 386.384064,358.534943 387.485046,358.489990 
	C390.957397,358.348206 394.381531,357.024597 397.824310,356.158325 
	C397.753448,355.473572 397.682587,354.788788 397.611755,354.104034 
	C395.286163,353.586670 392.960602,353.069305 390.338684,352.485992 
	C389.414764,350.136993 390.002686,348.512360 393.120514,349.049805 
	C396.781738,349.680939 400.437683,350.481598 403.990692,351.556458 
	C406.719452,352.381927 406.608765,354.026794 404.570831,355.824219 
	C394.991943,364.272186 383.794769,362.678345 372.266235,360.727753 
z"/>
<path fill="#5BC2B8" opacity="1.000000" stroke="none" 
	d="
M378.010864,131.001984 
	C379.998871,139.118378 382.443695,147.155090 383.876495,155.368347 
	C386.568420,170.799332 384.734924,186.170670 380.745667,201.102798 
	C378.603394,209.121506 374.426697,216.596680 370.824646,224.863327 
	C368.617462,227.906357 366.753601,230.403183 364.889740,232.900009 
	C368.933197,223.231415 373.774750,213.810013 376.861176,203.844986 
	C384.285187,179.875275 384.319763,155.719315 376.520813,131.376831 
	C377.186401,131.000458 377.598633,131.001221 378.010864,131.001984 
z"/>
<path fill="#21C7B7" opacity="1.000000" stroke="none" 
	d="
M236.763824,351.265320 
	C236.094620,350.541687 235.682175,350.081665 235.189789,349.532471 
	C240.850708,347.225037 242.035492,351.346741 244.016861,354.702271 
	C245.005676,356.376862 246.913513,358.676880 248.377701,358.656830 
	C251.324661,358.616333 251.059097,355.709167 251.020004,353.382874 
	C250.950195,349.229919 250.822968,345.062225 251.116135,340.928833 
	C251.198853,339.762512 252.660629,338.694000 253.489899,337.580627 
	C253.991547,337.852600 254.493195,338.124573 254.994843,338.396545 
	C254.994843,344.841248 255.198502,351.297241 254.840927,357.722046 
	C254.759155,359.191406 252.898788,361.583618 251.588303,361.782715 
	C246.408676,362.569641 241.124283,362.803680 235.873764,362.874695 
	C234.788971,362.889374 233.682831,361.326782 232.455292,360.391113 
	C235.563019,358.861359 238.129135,358.333649 239.201172,356.777039 
	C239.784485,355.929962 237.830292,353.335358 236.763824,351.265320 
z"/>
<path fill="#21C7B8" opacity="1.000000" stroke="none" 
	d="
M203.306366,362.308350 
	C205.397903,361.533386 207.150925,360.976471 209.376877,360.269318 
	C206.318192,357.278351 200.469299,357.559845 202.277695,352.250183 
	C202.810287,350.686371 205.988434,349.592224 208.138916,349.114410 
	C211.173401,348.440277 213.717697,349.442932 214.049606,354.050781 
	C211.417038,353.584747 209.071075,353.169434 206.725128,352.754120 
	C206.628799,353.007202 206.532471,353.260315 206.436142,353.513397 
	C206.991898,353.876831 207.602142,354.178772 208.093796,354.614532 
	C210.009018,356.312073 213.282196,357.904877 213.482788,359.807343 
	C213.879715,363.572357 210.010941,365.104889 206.974121,365.802887 
	C203.973206,366.492615 200.611343,366.415771 197.556915,365.858307 
	C194.011826,365.211273 192.243469,362.391388 193.159195,358.868195 
	C193.511871,357.511261 195.531555,356.587646 197.597565,354.749725 
	C198.298416,359.435120 196.962982,364.214996 203.306366,362.308350 
z"/>
<path fill="#21C7B7" opacity="1.000000" stroke="none" 
	d="
M221.550293,364.777374 
	C222.579132,364.160645 223.244949,363.734253 223.088669,363.834351 
	C221.360641,361.524109 219.121445,359.496429 218.142792,356.978760 
	C216.906158,353.797333 219.830887,352.567505 222.244980,352.142944 
	C224.520676,351.742798 227.860687,351.068848 228.122589,354.699310 
	C228.392502,358.441040 229.084381,363.492065 227.084671,365.712555 
	C224.681412,368.381134 219.656952,368.762390 215.684769,369.825073 
	C215.310532,369.925140 214.345917,367.818420 213.631302,366.698517 
	C216.787384,365.975555 218.987320,365.471619 221.550293,364.777374 
z"/>
<path fill="#506367" opacity="1.000000" stroke="none" 
	d="
M335.002716,358.676697 
	C334.999756,354.395996 335.223907,350.565704 334.931030,346.775330 
	C334.678741,343.510132 334.018372,340.244720 333.214569,337.061157 
	C331.933289,331.986389 333.737183,330.399536 339.000763,331.497803 
	C339.000763,335.722687 339.001343,339.803040 339.000610,343.883392 
	C338.999725,348.856842 339.086792,353.833191 338.924652,358.801392 
	C338.890320,359.854034 337.944031,360.876923 337.417908,361.913513 
	C336.613739,360.990479 335.809540,360.067444 335.002716,358.676697 
z"/>
<path fill="#21C8B7" opacity="1.000000" stroke="none" 
	d="
M354.896027,351.656372 
	C359.564728,350.674561 364.164215,350.209747 365.849609,355.506866 
	C366.891174,358.780548 366.140533,362.104248 361.759094,362.969910 
	C356.648407,363.979614 353.975708,362.802124 353.326141,358.423981 
	C353.022614,356.378235 354.134613,354.122437 354.896027,351.656372 
z"/>
<path fill="#506366" opacity="1.000000" stroke="none" 
	d="
M174.023834,359.621185 
	C174.006607,353.342560 174.122620,347.522644 173.960098,341.710541 
	C173.858917,338.092316 175.384735,337.362488 178.730469,338.545837 
	C178.730469,346.107300 178.730469,353.681305 178.730469,362.689331 
	C176.762329,361.595947 175.400848,360.839569 174.023834,359.621185 
z"/>
<path fill="#889395" opacity="1.000000" stroke="none" 
	d="
M217.615417,162.175476 
	C218.010498,185.345001 218.055679,208.771576 218.040009,232.673889 
	C217.632401,232.483887 217.005280,231.828247 216.980896,231.150894 
	C216.607544,220.784195 216.005371,210.412506 216.078751,200.046387 
	C216.167526,187.506256 216.843597,174.970291 217.615417,162.175476 
z"/>
<path fill="#45BFB2" opacity="1.000000" stroke="none" 
	d="
M364.910217,232.917969 
	C366.753601,230.403183 368.617462,227.906357 370.751221,225.198761 
	C372.109375,225.648697 373.197632,226.309402 374.634827,227.333496 
	C375.003662,228.181488 375.023560,228.666107 375.043457,229.150726 
	C374.714966,229.586014 374.386475,230.021301 373.638794,230.779037 
	C372.823944,231.783951 372.428284,232.466415 372.032654,233.148895 
	C372.013916,233.481781 371.862762,233.735931 371.011932,233.994965 
	C369.623291,235.038803 368.801941,235.999023 367.884827,237.324036 
	C367.887451,238.148468 367.985840,238.608124 368.084229,239.067780 
	C368.084229,239.067780 367.998871,239.014206 367.698242,238.952164 
	C367.282349,239.288498 367.167114,239.686890 367.051880,240.085281 
	C367.051880,240.085281 367.013458,240.014648 366.722900,239.990234 
	C366.302216,240.339767 366.172119,240.713715 366.042023,241.087662 
	C366.042023,241.087662 366.016510,241.016479 365.725494,240.990204 
	C365.302979,241.338547 365.171509,241.713150 365.040009,242.087753 
	C365.040009,242.087753 365.010742,242.007950 364.728943,241.892548 
	C364.000610,241.884537 363.554108,241.991943 363.042847,241.971436 
	C362.901093,241.793503 362.824127,241.743469 362.747162,241.693451 
	C362.864441,241.831284 362.981720,241.969116 363.023193,242.438782 
	C362.983978,243.205673 363.020538,243.640732 363.057098,244.075790 
	C363.057098,244.075790 363.004456,244.006149 362.708008,243.925812 
	C361.964142,243.969116 361.516724,244.092773 360.962738,243.951401 
	C360.343079,243.134094 359.829987,242.581848 359.254700,241.708344 
	C359.140930,241.175156 359.089325,240.963211 359.037689,240.751251 
	C358.971222,240.435196 359.078735,240.197983 359.943054,239.978302 
	C361.337738,238.553604 362.149597,237.190201 362.961426,235.826797 
	C362.961426,235.826797 362.995270,235.423737 363.375122,235.168610 
	C364.146271,234.236420 364.537567,233.559357 364.928864,232.882294 
	C364.928864,232.882278 364.930664,232.935944 364.910217,232.917969 
z"/>
<path fill="#D8DDDC" opacity="1.000000" stroke="none" 
	d="
M408.931824,205.480255 
	C408.840515,202.400620 408.789398,198.915665 408.426788,195.176590 
	C408.797058,190.601334 409.478851,186.280197 410.160645,181.959061 
	C410.639801,182.020813 411.118988,182.082565 411.598145,182.144318 
	C412.974915,189.972778 410.987396,197.525009 408.931824,205.480255 
z"/>
<path fill="#BFCACB" opacity="1.000000" stroke="none" 
	d="
M244.109253,212.543823 
	C243.800781,211.369186 243.071793,209.735474 243.059036,208.096191 
	C242.946823,193.670593 242.962082,179.243988 242.970474,164.340851 
	C243.336914,165.352417 243.956223,166.839310 243.964111,168.329437 
	C244.041336,182.913376 244.016602,197.497833 244.109253,212.543823 
z"/>
<path fill="#45BFB2" opacity="1.000000" stroke="none" 
	d="
M374.027954,77.616669 
	C370.556122,74.644913 366.906433,71.444550 363.569244,67.946098 
	C361.476807,65.752579 359.854095,63.110989 358.025208,60.302025 
	C363.347290,65.709747 368.664734,71.485878 374.027954,77.616669 
z"/>
<path fill="#65BBB0" opacity="1.000000" stroke="none" 
	d="
M145.935928,120.327133 
	C146.822464,121.599747 147.531662,123.224396 148.515518,125.259430 
	C148.565536,127.489426 148.340866,129.309036 148.116196,131.128632 
	C146.984970,132.679703 145.853760,134.230774 144.374222,135.488159 
	C143.997437,133.115677 143.968979,131.036865 143.940506,128.958069 
	C144.546539,126.198433 145.152557,123.438797 145.935928,120.327133 
z"/>
<path fill="#D7F5F3" opacity="1.000000" stroke="none" 
	d="
M143.569885,129.117996 
	C143.968979,131.036865 143.997437,133.115677 144.082062,135.634857 
	C143.945709,139.690033 143.753220,143.304840 143.560715,146.919632 
	C143.054642,146.884735 142.548569,146.849838 142.042496,146.814941 
	C138.994781,140.834686 142.894547,135.126770 143.569885,129.117996 
z"/>
<path fill="#45BFB2" opacity="1.000000" stroke="none" 
	d="
M357.944244,59.653259 
	C353.074524,56.188286 348.083984,52.405140 343.063049,48.270607 
	C347.962921,51.724510 352.893158,55.529800 357.944244,59.653259 
z"/>
<path fill="#5BC2B8" opacity="1.000000" stroke="none" 
	d="
M359.316895,242.029602 
	C359.829987,242.581848 360.343079,243.134094 360.915955,244.264206 
	C361.003540,245.255402 361.031311,245.668762 361.059052,246.082108 
	C361.059052,246.082108 361.009186,246.021606 360.739044,246.027527 
	C360.324463,246.384338 360.180054,246.735245 360.035614,247.086136 
	C360.035614,247.086136 360.016418,247.016281 359.741455,247.025009 
	C359.323639,247.384750 359.180817,247.735779 359.037964,248.086792 
	C359.037964,248.086792 359.016724,248.016556 358.739410,248.021088 
	C358.321777,248.379608 358.181427,248.733627 358.041107,249.087631 
	C358.041107,249.087631 358.010773,249.010513 357.676697,248.925201 
	C356.222015,248.559097 355.101410,248.278290 354.041016,247.725433 
	C354.050018,247.274826 353.998749,247.096268 353.947479,246.917709 
	C353.947479,246.917709 353.981567,246.981323 354.272552,246.917603 
	C354.714172,246.438309 354.864807,246.022766 355.015442,245.607208 
	C355.015442,245.607208 354.892029,245.420547 355.319763,245.198334 
	C355.839874,244.502838 355.932312,244.029556 356.024719,243.556259 
	C355.943573,243.310089 356.018372,243.127975 356.751343,242.973724 
	C357.499023,242.595551 357.744476,242.253540 357.989929,241.911530 
	C357.989929,241.911530 357.980408,241.982559 358.295135,242.043976 
	C358.845551,242.080139 359.081207,242.054871 359.316895,242.029602 
z"/>
<path fill="#45BFB2" opacity="1.000000" stroke="none" 
	d="
M379.929596,219.936874 
	C381.677521,216.342316 383.425476,212.747772 385.499420,209.083130 
	C384.487579,212.563690 383.149750,216.114349 381.180939,219.830200 
	C380.343170,219.975876 380.136383,219.956375 379.929596,219.936874 
z"/>
<path fill="#45BFB2" opacity="1.000000" stroke="none" 
	d="
M339.938904,45.636253 
	C336.089996,43.845657 332.105347,41.728870 328.078644,39.264809 
	C331.958801,41.048386 335.880951,43.179226 339.938904,45.636253 
z"/>
<path fill="#D2F9F5" opacity="1.000000" stroke="none" 
	d="
M351.992218,252.822479 
	C350.166107,254.062576 348.339996,255.302658 346.513885,256.542725 
	C346.181885,256.328278 345.849884,256.113800 345.517883,255.899353 
	C347.454346,253.641830 349.390778,251.384323 351.651276,249.384094 
	C351.980957,250.701736 351.986603,251.762115 351.992218,252.822479 
z"/>
<path fill="#C1F5F1" opacity="1.000000" stroke="none" 
	d="
M352.350586,252.897003 
	C351.986603,251.762115 351.980957,250.701736 351.964722,249.243683 
	C351.939758,248.492218 352.085236,248.225632 352.904541,248.012817 
	C353.605988,247.985428 353.793396,247.991470 353.980774,247.997498 
	C355.101410,248.278290 356.222015,248.559097 357.710022,248.949890 
	C356.287872,250.363754 354.498413,251.667633 352.350586,252.897003 
z"/>
<path fill="#B8F4F0" opacity="1.000000" stroke="none" 
	d="
M148.449554,130.941788 
	C148.340866,129.309036 148.565536,127.489426 148.858521,125.331459 
	C149.756744,123.374939 150.586624,121.756783 151.753113,120.076561 
	C150.987473,123.594650 149.885193,127.174797 148.449554,130.941788 
z"/>
<path fill="#5BC2B8" opacity="1.000000" stroke="none" 
	d="
M373.175476,123.339737 
	C373.568176,122.995682 373.982361,122.992706 374.707764,122.983780 
	C375.018982,122.977829 375.016937,122.983231 375.047607,123.312271 
	C375.717743,124.763786 376.357208,125.886253 376.996704,127.008713 
	C377.006378,127.449150 377.016052,127.889595 376.819519,128.660400 
	C376.613281,128.990753 376.173828,128.989624 376.173828,128.989624 
	C375.181519,127.220024 374.189209,125.450424 373.175476,123.339737 
z"/>
<path fill="#5BC2B8" opacity="1.000000" stroke="none" 
	d="
M362.653198,235.968079 
	C362.149597,237.190201 361.337738,238.553604 360.145081,239.928650 
	C360.624512,238.663330 361.484741,237.386353 362.653198,235.968079 
z"/>
<path fill="#45BFB2" opacity="1.000000" stroke="none" 
	d="
M376.099609,129.322357 
	C376.173828,128.989624 376.613281,128.990753 376.833618,128.990494 
	C377.510132,129.541702 377.966339,130.093170 378.216705,130.823303 
	C377.598633,131.001221 377.186401,131.000458 376.465088,131.002533 
	C376.112488,130.555283 376.068939,130.105179 376.099609,129.322357 
z"/>
<path fill="#5BC2B8" opacity="1.000000" stroke="none" 
	d="
M367.980591,236.959244 
	C368.801941,235.999023 369.623291,235.038803 370.790894,234.055466 
	C370.674377,234.951401 370.211609,235.870453 369.159119,236.876709 
	C368.373169,236.962372 368.176880,236.960815 367.980591,236.959244 
z"/>
<path fill="#45BFB2" opacity="1.000000" stroke="none" 
	d="
M342.958984,47.653740 
	C342.094116,47.516594 341.112610,47.068775 340.081482,46.270092 
	C340.968719,46.393841 341.905518,46.868458 342.958984,47.653740 
z"/>
<path fill="#ADF1ED" opacity="1.000000" stroke="none" 
	d="
M163.375732,100.976074 
	C163.487305,100.037415 163.916153,98.999657 164.715317,98.002922 
	C164.621429,98.988289 164.157227,99.932632 163.375732,100.976074 
z"/>
<path fill="#5BC2B8" opacity="1.000000" stroke="none" 
	d="
M379.729797,220.065643 
	C380.136383,219.956375 380.343170,219.975876 380.860779,220.019180 
	C380.678955,220.971436 380.186249,221.899887 379.351440,222.919678 
	C379.009338,223.011002 378.937408,222.944626 378.945435,222.610199 
	C378.950653,221.829178 378.947906,221.382599 378.945129,220.936005 
	C379.081512,220.642593 379.276459,220.395401 379.729797,220.065643 
z"/>
<path fill="#5BC2B8" opacity="1.000000" stroke="none" 
	d="
M379.044922,223.044586 
	C378.724884,223.866455 378.369232,224.654755 377.624939,225.410110 
	C377.140686,225.233795 377.045044,225.090424 377.011383,224.641418 
	C377.694702,223.872070 378.316071,223.408340 378.937408,222.944626 
	C378.937408,222.944626 379.009338,223.011002 379.044922,223.044586 
z"/>
<path fill="#5BC2B8" opacity="1.000000" stroke="none" 
	d="
M375.329712,229.030136 
	C375.023560,228.666107 375.003662,228.181488 374.973602,227.332306 
	C374.963440,226.967758 375.411194,226.878632 375.885864,226.892822 
	C376.531494,226.928223 376.702454,226.949432 376.873413,226.970642 
	C376.454285,227.616943 376.035156,228.263245 375.329712,229.030136 
z"/>
<path fill="#5BC2B8" opacity="1.000000" stroke="none" 
	d="
M372.314819,233.025528 
	C372.428284,232.466415 372.823944,231.783951 373.536011,231.036865 
	C373.433960,231.615555 373.015503,232.258865 372.314819,233.025528 
z"/>
<path fill="#5BC2B8" opacity="1.000000" stroke="none" 
	d="
M364.640991,232.986633 
	C364.537567,233.559357 364.146271,234.236420 363.438629,234.976608 
	C363.532593,234.390152 363.942871,233.740570 364.640991,232.986633 
z"/>
<path fill="#C1F5F1" opacity="1.000000" stroke="none" 
	d="
M361.348389,245.998520 
	C361.031311,245.668762 361.003540,245.255402 361.022522,244.529251 
	C361.516724,244.092773 361.964142,243.969116 362.744873,243.949173 
	C362.598022,244.673569 362.117859,245.294250 361.348389,245.998520 
z"/>
<path fill="#C1F5F1" opacity="1.000000" stroke="none" 
	d="
M363.346741,243.995819 
	C363.020538,243.640732 362.983978,243.205673 362.973969,242.385712 
	C363.000519,242.000809 363.107605,242.099365 363.107605,242.099365 
	C363.554108,241.991943 364.000610,241.884537 364.760590,241.920914 
	C364.594849,242.681747 364.115601,243.298813 363.346741,243.995819 
z"/>
<path fill="#B8F4F0" opacity="1.000000" stroke="none" 
	d="
M152.359955,119.977539 
	C152.167572,119.431480 152.286011,118.788101 152.747955,118.080307 
	C152.951218,118.637337 152.810989,119.258781 152.359955,119.977539 
z"/>
<path fill="#ADF1ED" opacity="1.000000" stroke="none" 
	d="
M166.372437,96.972824 
	C166.183304,96.449821 166.302780,95.825485 166.753738,95.103844 
	C166.950485,95.628189 166.815750,96.249832 166.372437,96.972824 
z"/>
<path fill="#B8F4F0" opacity="1.000000" stroke="none" 
	d="
M153.362396,117.975998 
	C153.169312,117.432060 153.285370,116.788544 153.746384,116.080528 
	C153.951401,116.636162 153.811447,117.256294 153.362396,117.975998 
z"/>
<path fill="#889395" opacity="1.000000" stroke="none" 
	d="
M218.688782,159.973145 
	C218.821228,160.444031 218.663940,161.073395 218.210419,161.856445 
	C218.075821,161.383942 218.237442,160.757782 218.688782,159.973145 
z"/>
<path fill="#B8F4F0" opacity="1.000000" stroke="none" 
	d="
M154.365143,115.973991 
	C154.169647,115.432487 154.282913,114.791389 154.743317,114.082535 
	C154.951584,114.634659 154.812744,115.254524 154.365143,115.973991 
z"/>
<path fill="#ADF1ED" opacity="1.000000" stroke="none" 
	d="
M161.369705,103.973984 
	C161.179520,103.445259 161.298141,102.816132 161.752197,102.098763 
	C161.951263,102.631538 161.814880,103.252563 161.369705,103.973984 
z"/>
<path fill="#B8F4F0" opacity="1.000000" stroke="none" 
	d="
M158.369507,108.969261 
	C158.176651,108.439934 158.289459,107.806152 158.746246,107.091629 
	C158.951859,107.628860 158.813507,108.246826 158.369507,108.969261 
z"/>
<path fill="#B8F4F0" opacity="1.000000" stroke="none" 
	d="
M155.364441,113.974846 
	C155.178711,113.449661 155.303833,112.825539 155.758636,112.103043 
	C155.950653,112.628418 155.812958,113.252167 155.364441,113.974846 
z"/>
<path fill="#B8F4F0" opacity="1.000000" stroke="none" 
	d="
M156.357376,111.977631 
	C156.174332,111.449135 156.301605,110.819260 156.758057,110.097458 
	C156.947372,110.629105 156.807541,111.252678 156.357376,111.977631 
z"/>
<path fill="#C1F5F1" opacity="1.000000" stroke="none" 
	d="
M367.884827,237.324036 
	C368.176880,236.960815 368.373169,236.962372 368.862793,236.990036 
	C369.005859,237.636581 368.855560,238.257019 368.394745,238.972610 
	C367.985840,238.608124 367.887451,238.148468 367.884827,237.324036 
z"/>
<path fill="#D2F9F5" opacity="1.000000" stroke="none" 
	d="
M354.041016,247.725433 
	C353.793396,247.991470 353.605988,247.985428 353.137573,247.965286 
	C353.045807,247.652985 353.235016,247.354782 353.685852,246.987152 
	C353.998749,247.096268 354.050018,247.274826 354.041016,247.725433 
z"/>
<path fill="#B8F4F0" opacity="1.000000" stroke="none" 
	d="
M159.324799,107.011032 
	C158.985550,106.899590 158.912781,106.724670 159.118698,106.272919 
	C159.397400,105.996101 159.863678,106.001411 159.863678,106.001411 
	C159.772873,106.316795 159.682083,106.632179 159.324799,107.011032 
z"/>
<path fill="#45BFB2" opacity="1.000000" stroke="none" 
	d="
M375.001343,78.721771 
	C374.801117,78.785805 374.519257,78.590630 374.125610,78.159195 
	C374.315735,78.102821 374.617737,78.282700 375.001343,78.721771 
z"/>
<path fill="#ADF1ED" opacity="1.000000" stroke="none" 
	d="
M170.295715,92.010651 
	C170.143738,91.768906 170.244995,91.455681 170.610565,91.086838 
	C170.766220,91.333870 170.657562,91.636520 170.295715,92.010651 
z"/>
<path fill="#ADF1ED" opacity="1.000000" stroke="none" 
	d="
M169.310806,93.026825 
	C169.176590,92.720428 169.311432,92.354950 169.764954,92.014290 
	C169.915695,92.348648 169.747787,92.658203 169.310806,93.026825 
z"/>
<path fill="#ADF1ED" opacity="1.000000" stroke="none" 
	d="
M168.304001,94.026215 
	C168.176056,93.725548 168.318344,93.367882 168.773438,93.025421 
	C168.915588,93.350166 168.744919,93.659691 168.304001,94.026215 
z"/>
<path fill="#ADF1ED" opacity="1.000000" stroke="none" 
	d="
M167.296967,95.020782 
	C167.174881,94.732040 167.322159,94.382126 167.776520,94.032478 
	C167.911179,94.341698 167.738754,94.650658 167.296967,95.020782 
z"/>
<path fill="#ADF1ED" opacity="1.000000" stroke="none" 
	d="
M165.310089,98.027008 
	C165.176056,97.720131 165.311096,97.355812 165.766144,97.017525 
	C165.917160,97.352226 165.748138,97.660896 165.310089,98.027008 
z"/>
<path fill="#B8F4F0" opacity="1.000000" stroke="none" 
	d="
M157.296646,110.024750 
	C157.168686,109.714630 157.311386,109.347481 157.770477,109.010872 
	C157.913696,109.350182 157.740494,109.658958 157.296646,110.024750 
z"/>
<path fill="#ADF1ED" opacity="1.000000" stroke="none" 
	d="
M162.300735,102.023987 
	C162.174881,101.726784 162.319382,101.372017 162.774933,101.027451 
	C162.914368,101.347244 162.742722,101.656837 162.300735,102.023987 
z"/>
<path fill="#ADF1ED" opacity="1.000000" stroke="none" 
	d="
M159.935608,105.762024 
	C159.863678,106.001411 159.397400,105.996101 159.162811,105.992188 
	C159.122955,105.673798 159.317688,105.359314 159.798279,105.036728 
	C160.084152,105.028610 160.007553,105.522636 159.935608,105.762024 
z"/>
<path fill="#C1F5F1" opacity="1.000000" stroke="none" 
	d="
M358.307068,249.022858 
	C358.181427,248.733627 358.321777,248.379608 358.774597,248.031403 
	C358.915771,248.344162 358.744385,248.651123 358.307068,249.022858 
z"/>
<path fill="#5BC2B8" opacity="1.000000" stroke="none" 
	d="
M375.941193,226.058273 
	C375.929169,225.882095 375.917114,225.705902 376.168762,225.256470 
	C376.604797,224.971161 376.777100,224.959106 376.949402,224.947052 
	C377.045044,225.090424 377.140686,225.233795 377.345276,225.611847 
	C377.454254,225.846542 377.336029,226.028061 376.933502,226.031647 
	C376.334381,226.042892 376.137787,226.050583 375.941193,226.058273 
z"/>
<path fill="#C1F5F1" opacity="1.000000" stroke="none" 
	d="
M359.304932,248.022675 
	C359.180817,247.735779 359.323639,247.384750 359.776489,247.034271 
	C359.914917,247.342728 359.743408,247.650650 359.304932,248.022675 
z"/>
<path fill="#45BFB2" opacity="1.000000" stroke="none" 
	d="
M375.928589,226.239197 
	C376.137787,226.050583 376.334381,226.042892 376.825623,226.041626 
	C377.120300,226.048050 376.996765,226.509766 376.935089,226.740204 
	C376.702454,226.949432 376.531494,226.928223 376.108551,226.842499 
	C375.856537,226.777985 375.916016,226.420135 375.928589,226.239197 
z"/>
<path fill="#C1F5F1" opacity="1.000000" stroke="none" 
	d="
M360.303131,247.022705 
	C360.180054,246.735245 360.324463,246.384338 360.777679,246.034149 
	C360.914520,246.342987 360.742584,246.651123 360.303131,247.022705 
z"/>
<path fill="#D2F9F5" opacity="1.000000" stroke="none" 
	d="
M354.771484,245.793732 
	C354.864807,246.022766 354.714172,246.438309 354.236572,246.920151 
	C354.115540,246.651047 354.321533,246.315643 354.771484,245.793732 
z"/>
<path fill="#D2F9F5" opacity="1.000000" stroke="none" 
	d="
M355.743591,243.776016 
	C355.932312,244.029556 355.839874,244.502838 355.400116,245.120483 
	C355.189331,244.841827 355.325897,244.418793 355.743591,243.776016 
z"/>
<path fill="#ADF1ED" opacity="1.000000" stroke="none" 
	d="
M160.301392,105.025665 
	C160.174042,104.723976 160.317734,104.365723 160.773712,104.023705 
	C160.914810,104.349655 160.743607,104.659378 160.301392,105.025665 
z"/>
<path fill="#D2F9F5" opacity="1.000000" stroke="none" 
	d="
M357.690979,241.996780 
	C357.744476,242.253540 357.499023,242.595551 356.911896,242.978210 
	C356.844177,242.706589 357.118134,242.394318 357.690979,241.996780 
z"/>
<path fill="#C1F5F1" opacity="1.000000" stroke="none" 
	d="
M365.305908,242.023834 
	C365.171509,241.713150 365.302979,241.338547 365.761047,241.003052 
	C365.915649,241.348083 365.743713,241.654007 365.305908,242.023834 
z"/>
<path fill="#D2F9F5" opacity="1.000000" stroke="none" 
	d="
M359.254700,241.708344 
	C359.081207,242.054871 358.845551,242.080139 358.262665,242.028839 
	C358.113098,241.635071 358.310730,241.317856 358.773010,240.875946 
	C359.089325,240.963211 359.140930,241.175156 359.254700,241.708344 
z"/>
<path fill="#C1F5F1" opacity="1.000000" stroke="none" 
	d="
M366.306641,241.023102 
	C366.172119,240.713715 366.302216,240.339767 366.760071,240.005463 
	C366.915649,240.349594 366.743469,240.654083 366.306641,241.023102 
z"/>
<path fill="#C1F5F1" opacity="1.000000" stroke="none" 
	d="
M367.319092,240.031143 
	C367.167114,239.686890 367.282349,239.288498 367.741333,238.974655 
	C367.918793,239.365128 367.752563,239.671066 367.319092,240.031143 
z"/>
<path fill="#45BFB2" opacity="1.000000" stroke="none" 
	d="
M377.011383,224.641418 
	C376.777100,224.959106 376.604797,224.971161 376.172729,224.991577 
	C374.017639,222.151810 375.238617,221.074326 378.570190,220.959518 
	C378.947906,221.382599 378.950653,221.829178 378.945435,222.610199 
	C378.316071,223.408340 377.694702,223.872070 377.011383,224.641418 
z"/>
<path fill="#45BFB2" opacity="1.000000" stroke="none" 
	d="
M377.001709,126.636719 
	C376.357208,125.886253 375.717743,124.763786 375.055206,123.307732 
	C375.690308,124.070999 376.348511,125.167862 377.001709,126.636719 
z"/>
<path fill="#5BC2B8" opacity="1.000000" stroke="none" 
	d="
M363.049744,242.053894 
	C362.981720,241.969116 362.864441,241.831284 362.747162,241.693451 
	C362.824127,241.743469 362.901093,241.793503 363.042847,241.971451 
	C363.107605,242.099365 363.000519,242.000809 363.049744,242.053894 
z"/>
</svg>