<svg version="1.1" id="Layer_1" xmlns="http://www.w3.org/2000/svg" xmlns:xlink="http://www.w3.org/1999/xlink" x="0px" y="0px"
	 width="100%" viewBox="0 0 551 375" enable-background="new 0 0 551 375" xml:space="preserve">
<path fill="#000000" opacity="1.000000" stroke="none" 
	d="
M362.000000,376.000000 
	C241.333328,376.000000 121.166664,376.000000 1.000000,376.000000 
	C1.000000,251.000000 1.000000,126.000000 1.000000,1.000000 
	C184.666672,1.000000 368.333344,1.000000 552.000000,1.000000 
	C552.000000,126.000000 552.000000,251.000000 552.000000,376.000000 
	C488.833344,376.000000 425.666656,376.000000 362.000000,376.000000 
M168.014572,94.014420 
	C168.014572,94.014420 168.033768,94.083214 168.574234,93.969223 
	C168.744919,93.659691 168.915588,93.350166 169.015488,93.015549 
	C169.015488,93.015549 169.041748,93.085907 169.579865,92.967751 
	C169.747787,92.658203 169.915695,92.348648 170.013458,92.013184 
	C170.013458,92.013184 170.042480,92.082123 170.548920,91.939178 
	C170.657562,91.636520 170.766220,91.333870 171.172882,90.400795 
	C180.286346,78.491737 192.321243,70.144440 205.250046,63.063728 
	C217.038940,56.607285 229.785980,53.182201 243.071625,50.728096 
	C259.655975,47.664658 275.880402,48.667805 291.879822,52.548557 
	C310.162781,56.983200 326.399261,65.655533 340.868439,78.086464 
	C355.389648,90.562103 365.609222,105.717102 373.196899,123.680824 
	C374.189209,125.450424 375.181519,127.220024 376.025391,129.655075 
	C376.068939,130.105179 376.112488,130.555283 376.267426,131.753952 
	C384.319733,155.719315 384.285217,179.875275 376.861176,203.845001 
	C373.774750,213.810013 368.933197,223.231415 364.930695,232.935944 
	C364.930695,232.935944 364.928864,232.882278 364.353149,233.090988 
	C363.942871,233.740570 363.532593,234.390152 362.995270,235.423737 
	C362.995270,235.423737 362.961426,235.826797 362.344940,236.109375 
	C361.484741,237.386353 360.624512,238.663330 359.360229,240.039627 
	C359.078735,240.197983 358.971222,240.435196 358.508362,241.000641 
	C358.310730,241.317856 358.113098,241.635071 357.980408,241.982559 
	C357.980408,241.982559 357.989929,241.911530 357.392059,242.082031 
	C357.118134,242.394318 356.844177,242.706589 356.249115,243.009903 
	C356.018372,243.127975 355.943573,243.310089 355.462463,243.995773 
	C355.325897,244.418793 355.189331,244.841827 354.892029,245.420547 
	C354.892029,245.420547 355.015442,245.607208 354.527496,245.980255 
	C354.321533,246.315643 354.115540,246.651047 353.981567,246.981323 
	C353.981567,246.981323 353.947479,246.917709 353.424225,247.056580 
	C353.235016,247.354782 353.045807,247.652985 352.390533,248.046249 
	C352.085236,248.225632 351.939758,248.492218 351.327240,249.126816 
	C349.390778,251.384323 347.454346,253.641830 345.517883,255.899353 
	C345.849884,256.113800 346.181885,256.328278 346.513885,256.542725 
	C348.339996,255.302658 350.166107,254.062576 352.708923,252.971527 
	C354.498413,251.667633 356.287872,250.363754 358.010773,249.010513 
	C358.010773,249.010513 358.041107,249.087631 358.573029,248.958069 
	C358.744385,248.651123 358.915771,248.344162 359.016724,248.016556 
	C359.016724,248.016556 359.037964,248.086792 359.571869,247.958572 
	C359.743408,247.650650 359.914917,247.342728 360.016418,247.016281 
	C360.016418,247.016281 360.035614,247.086136 360.570648,246.959259 
	C360.742584,246.651123 360.914520,246.342987 361.009186,246.021606 
	C361.009186,246.021606 361.059052,246.082108 361.637695,245.914932 
	C362.117859,245.294250 362.598022,244.673569 363.004456,244.006149 
	C363.004456,244.006149 363.057098,244.075790 363.636383,243.915863 
	C364.115601,243.298813 364.594849,242.681747 365.010742,242.007950 
	C365.010742,242.007950 365.040009,242.087753 365.571777,241.959930 
	C365.743713,241.654007 365.915649,241.348083 366.016510,241.016479 
	C366.016510,241.016479 366.042023,241.087662 366.571289,240.958557 
	C366.743469,240.654083 366.915649,240.349594 367.013458,240.014648 
	C367.013458,240.014648 367.051880,240.085281 367.586304,239.977005 
	C367.752563,239.671066 367.918793,239.365128 367.998871,239.014206 
	C367.998871,239.014206 368.084229,239.067780 368.705261,238.877441 
	C368.855560,238.257019 369.005859,237.636581 369.748840,236.789505 
	C370.211609,235.870453 370.674377,234.951401 371.579224,233.911346 
	C371.862762,233.735931 372.013916,233.481781 372.597015,232.902176 
	C373.015503,232.258865 373.433960,231.615555 374.058594,230.455856 
	C374.387573,230.019806 374.716553,229.583755 375.616699,228.908890 
	C376.036041,228.266388 376.455414,227.623886 376.998260,226.512573 
	C376.998260,226.512573 377.122406,226.043945 377.315186,226.018448 
	C377.315186,226.018448 377.422943,225.856598 377.997742,225.462769 
	C378.359924,224.666794 378.722076,223.870834 379.673950,222.846420 
	C380.068695,222.170883 380.463440,221.495346 380.987915,220.506790 
	C380.987915,220.506790 381.038666,220.171753 381.711182,219.784927 
	C383.082611,216.194290 384.454010,212.603668 385.987549,208.533218 
	C386.024170,208.368439 386.060822,208.203644 386.711212,207.713547 
	C395.913239,193.869049 398.303070,177.931870 399.853027,161.999619 
	C401.196747,148.187668 399.413147,134.338348 395.849915,120.930214 
	C391.774078,105.593147 385.245636,91.306152 375.000702,78.996391 
	C375.000702,78.996391 375.082947,78.980980 374.919708,78.462578 
	C374.617737,78.282700 374.315735,78.102821 374.001892,77.998863 
	C374.001892,77.998863 374.073669,77.971329 373.982208,77.262016 
	C368.664734,71.485878 363.347290,65.709747 357.999512,59.998184 
	C357.999512,59.998184 358.065094,59.971428 357.823395,59.335091 
	C352.893158,55.529800 347.962921,51.724510 342.998718,47.995491 
	C342.998718,47.995491 343.075653,47.964405 342.842316,47.343071 
	C341.905518,46.868458 340.968719,46.393841 339.998749,45.995800 
	C339.998749,45.995800 340.074677,45.962444 339.803131,45.310066 
	C335.880951,43.179226 331.958801,41.048386 327.996704,38.993504 
	C327.996704,38.993504 328.073547,38.958561 327.765350,38.286747 
	C325.654724,37.466675 323.461334,36.811386 321.446777,35.799976 
	C307.640991,28.868797 292.767578,25.996927 277.586365,25.131409 
	C261.115906,24.192381 245.050171,25.914034 229.151810,31.643528 
	C212.323334,37.708229 197.222595,46.283817 183.895889,57.791183 
	C170.502914,69.355766 160.302689,83.684639 153.085022,99.888107 
	C150.211548,106.338974 148.405350,113.265251 145.758575,120.679161 
	C145.152557,123.438797 144.546539,126.198433 143.199265,129.277924 
	C142.894547,135.126770 138.994781,140.834686 142.042496,146.814941 
	C142.548569,146.849838 143.054642,146.884735 143.560715,146.919632 
	C143.753220,143.304840 143.945709,139.690033 144.722549,135.781860 
	C145.853760,134.230774 146.984970,132.679703 148.782928,130.754944 
	C149.885193,127.174797 150.987473,123.594650 152.018463,120.010406 
	C152.018463,120.010406 152.049149,120.074867 152.670776,119.880219 
	C152.810989,119.258781 152.951218,118.637337 153.019135,118.011688 
	C153.019135,118.011688 153.053268,118.075577 153.671509,117.876427 
	C153.811447,117.256294 153.951401,116.636162 154.018463,116.011139 
	C154.018463,116.011139 154.056381,116.073586 154.673904,115.874397 
	C154.812744,115.254524 154.951584,114.634659 155.018356,114.010780 
	C155.018356,114.010780 155.053604,114.073776 155.675262,113.875916 
	C155.812958,113.252167 155.950653,112.628418 156.017883,112.014160 
	C156.017883,112.014160 156.047058,112.079002 156.667694,111.876251 
	C156.807541,111.252678 156.947372,110.629105 157.015152,110.010368 
	C157.015152,110.010368 157.026001,110.081772 157.567291,109.967728 
	C157.740494,109.658958 157.913696,109.350182 158.007935,109.009407 
	C158.007935,109.009407 158.063843,109.073723 158.675156,108.864799 
	C158.813507,108.246826 158.951859,107.628860 159.017654,107.014687 
	C159.017654,107.014687 159.059814,107.073860 159.592606,106.946716 
	C159.682938,106.630875 159.773270,106.315041 160.007401,105.521629 
	C160.007401,105.521629 160.084106,105.028801 160.015259,105.013283 
	C160.015259,105.013283 160.030350,105.082222 160.572418,104.969101 
	C160.743607,104.659378 160.914810,104.349655 161.008682,104.009987 
	C161.008682,104.009987 161.060913,104.074379 161.678497,103.873589 
	C161.814880,103.252563 161.951263,102.631538 162.016418,102.011681 
	C162.016418,102.011681 162.030380,102.081543 162.571091,101.966431 
	C162.742722,101.656837 162.914368,101.347244 163.009995,101.010735 
	C163.009995,101.010735 163.058456,101.075180 163.693024,100.876968 
	C164.157227,99.932632 164.621429,98.988289 165.016541,98.012665 
	C165.016541,98.012665 165.041031,98.084442 165.579132,97.969574 
	C165.748138,97.660896 165.917160,97.352226 166.007019,97.009254 
	C166.007019,97.009254 166.063843,97.074158 166.681015,96.871483 
	C166.815750,96.249832 166.950485,95.628189 167.013809,95.011703 
	C167.013809,95.011703 167.027588,95.081947 167.566330,94.959618 
	C167.738754,94.650658 167.911179,94.341698 168.014572,94.014420 
M217.987640,161.990967 
	C217.987640,161.990967 217.965317,161.918442 217.265518,162.432526 
	C216.843597,174.970291 216.167526,187.506256 216.078751,200.046387 
	C216.005371,210.412506 216.607544,220.784195 216.980896,231.150894 
	C217.005280,231.828247 217.632401,232.483887 217.997742,233.907196 
	C218.759109,239.480026 226.092453,244.902557 231.821304,243.868607 
	C237.409180,242.860077 242.959686,241.617996 248.489594,240.320694 
	C258.142883,238.056061 267.781158,235.723373 277.395874,233.300949 
	C280.050934,232.632004 281.750641,233.112823 282.899078,235.791824 
	C286.521881,244.242798 290.192902,252.675995 294.033173,261.029724 
	C296.409271,266.198456 298.481506,271.704926 301.884399,276.144409 
	C304.901947,280.081116 315.510040,280.226837 319.103638,277.532501 
	C324.823853,273.243683 326.485840,266.721344 323.524048,259.945129 
	C316.481506,243.832520 309.429291,227.724091 302.349030,211.628021 
	C299.830750,205.903061 293.699249,202.539124 287.558411,203.572479 
	C283.642609,204.231415 279.752960,205.063904 275.874023,205.920364 
	C265.308868,208.253159 254.755630,210.640030 244.020844,212.082153 
	C244.016602,197.497833 244.041336,182.913376 243.964111,168.329437 
	C243.956223,166.839310 243.336914,165.352417 243.047821,163.153290 
	C239.010239,152.104080 224.504822,150.839920 218.399078,160.131622 
	C218.237442,160.757782 218.075821,161.383942 217.987640,161.990967 
M408.972046,205.074951 
	C410.987396,197.525009 412.974915,189.972778 411.598145,182.144318 
	C411.118988,182.082565 410.639801,182.020813 410.160645,181.959061 
	C409.478851,186.280197 408.797058,190.601334 407.844604,195.572998 
	C403.548737,204.909637 399.517151,214.379181 394.902771,223.555679 
	C384.800720,243.645401 369.936859,259.718506 351.897888,272.915955 
	C337.824860,283.211884 322.452118,291.121399 305.306458,294.542572 
	C292.440216,297.109802 279.324860,299.158997 266.249329,299.690796 
	C257.483795,300.047272 248.611099,297.215363 239.755814,296.040253 
	C224.675171,294.039032 211.187973,287.872009 198.126068,280.515472 
	C183.081818,272.042480 170.187210,261.073242 159.301117,247.644638 
	C151.502106,238.024139 145.136276,227.657578 139.779007,216.450790 
	C126.519203,188.712860 124.179359,159.711273 129.098175,129.927475 
	C132.719284,108.001457 141.697449,88.168610 155.147095,70.413055 
	C157.677155,67.073013 160.118729,63.665936 163.258133,59.396244 
	C141.516724,60.893234 106.979279,128.656754 105.928360,168.491058 
	C103.773270,250.178665 162.497391,322.183868 250.143494,327.649384 
	C323.649139,332.233063 391.934509,284.551544 408.972046,205.074951 
M271.194061,247.351913 
	C268.602966,248.584244 265.377563,249.215302 263.536011,251.158112 
	C257.216888,257.824615 249.832886,262.106262 240.776566,263.673920 
	C229.328033,265.655670 218.356873,264.982727 208.567474,257.985168 
	C195.794769,248.855103 188.581741,236.905457 188.947754,220.638824 
	C189.233627,207.933228 193.269226,197.333069 203.310883,189.274017 
	C203.942581,188.767014 204.731171,188.100388 204.872040,187.393494 
	C205.924652,182.111191 206.832382,176.800003 207.785492,171.497879 
	C207.230194,171.217178 206.674896,170.936478 206.119583,170.655777 
	C204.369080,171.326263 202.346756,171.638870 200.913651,172.727280 
	C193.493393,178.362762 186.721970,184.655518 181.790009,192.711472 
	C172.418564,208.018997 171.167831,224.445221 177.542023,240.704224 
	C183.897781,256.916168 195.306381,269.139313 212.359787,275.031494 
	C226.407639,279.885254 240.365692,279.871094 254.137878,273.934570 
	C262.795654,270.202637 270.509918,265.223328 276.120056,257.394348 
	C278.009155,254.758118 282.603851,252.818283 280.140686,249.075150 
	C279.009552,247.356262 274.809052,247.657181 271.194061,247.351913 
M252.083435,115.692688 
	C250.704651,114.268158 249.152985,112.972694 247.976639,111.397018 
	C242.533478,104.106018 234.277206,104.594574 227.550064,106.395554 
	C212.410477,110.448738 208.245224,129.750290 218.108231,139.892532 
	C224.913818,146.890762 237.000809,149.359482 245.634186,143.820099 
	C255.305450,137.614746 258.080566,125.717415 252.083435,115.692688 
z"/>
<path fill="#536669" opacity="1.000000" stroke="none" 
	d="
M408.891632,205.885574 
	C391.934509,284.551544 323.649139,332.233063 250.143494,327.649384 
	C162.497391,322.183868 103.773270,250.178665 105.928360,168.491058 
	C106.979279,128.656754 141.516724,60.893234 163.258133,59.396244 
	C160.118729,63.665936 157.677155,67.073013 155.147095,70.413055 
	C141.697449,88.168610 132.719284,108.001457 129.098175,129.927475 
	C124.179359,159.711273 126.519203,188.712860 139.779007,216.450790 
	C145.136276,227.657578 151.502106,238.024139 159.301117,247.644638 
	C170.187210,261.073242 183.081818,272.042480 198.126068,280.515472 
	C211.187973,287.872009 224.675171,294.039032 239.755814,296.040253 
	C248.611099,297.215363 257.483795,300.047272 266.249329,299.690796 
	C279.324860,299.158997 292.440216,297.109802 305.306458,294.542572 
	C322.452118,291.121399 337.824860,283.211884 351.897888,272.915955 
	C369.936859,259.718506 384.800720,243.645401 394.902771,223.555679 
	C399.517151,214.379181 403.548737,204.909637 408.291443,195.501862 
	C408.789398,198.915665 408.840515,202.400620 408.891632,205.885574 
z"/>
<path fill="#24C6B7" opacity="1.000000" stroke="none" 
	d="
M381.038666,220.171753 
	C381.038666,220.171753 380.987915,220.506790 380.607056,220.686630 
	C379.804657,220.895844 379.383148,220.925232 378.563843,220.970245 
	C377.100433,220.983154 376.034790,220.980453 374.958618,220.562546 
	C375.135529,218.514099 375.040680,216.783844 375.562378,215.265427 
	C377.263458,210.314484 379.723694,205.568207 380.928619,200.513565 
	C384.472290,185.647720 386.544922,170.547012 383.876312,155.310196 
	C382.441193,147.116379 379.998779,139.098984 378.216705,130.823303 
	C377.966339,130.093170 377.510132,129.541702 377.039825,128.660126 
	C377.016052,127.889595 377.006378,127.449150 377.001709,126.636719 
	C376.348511,125.167862 375.690308,124.070999 375.024536,122.978683 
	C375.016937,122.983231 375.018982,122.977829 375.015137,122.580826 
	C374.481476,120.103226 374.441742,117.708054 373.341339,115.993645 
	C366.761230,105.741684 361.675507,94.443016 352.498535,85.977211 
	C349.934845,83.612213 347.847778,80.701286 345.165070,78.500305 
	C338.053528,72.665771 331.276398,66.122391 323.352692,61.661263 
	C314.945343,56.927849 305.496460,53.889870 296.264801,50.827744 
	C289.762268,48.670860 282.872833,46.536121 276.138489,46.479324 
	C264.836670,46.384003 253.388809,44.324875 242.147339,47.929504 
	C231.936600,51.203613 221.196091,53.071301 211.334030,57.127136 
	C197.923981,62.642113 186.091843,71.168983 175.584961,81.179146 
	C170.684387,85.848038 166.787842,91.575508 162.475449,96.855202 
	C160.060303,99.812080 157.725388,102.834457 155.354324,105.827324 
	C154.857742,105.499352 154.361145,105.171379 153.864563,104.843407 
	C156.601196,99.430367 158.744522,93.598244 162.206253,88.697365 
	C168.180222,80.239830 174.570724,71.992638 181.553085,64.358337 
	C186.947983,58.459717 192.993500,52.814442 199.696747,48.542484 
	C207.694214,43.445713 216.440399,39.228416 225.343735,35.929695 
	C234.652557,32.480743 244.401230,29.594498 254.201706,28.274651 
	C263.779022,26.984858 273.667847,27.814379 283.413544,28.018461 
	C295.096039,28.263096 306.058411,31.551054 316.733948,36.196312 
	C320.248932,37.725800 324.278992,38.071537 328.073547,38.958561 
	C328.073547,38.958561 327.996704,38.993504 328.058685,39.302792 
	C332.105347,41.728870 336.089996,43.845657 340.074677,45.962444 
	C340.074677,45.962444 339.998749,45.995800 340.064911,46.308380 
	C341.112610,47.068775 342.094116,47.516594 343.075653,47.964409 
	C343.075653,47.964405 342.998718,47.995491 343.046082,48.308743 
	C348.083984,52.405140 353.074524,56.188286 358.065094,59.971428 
	C358.065094,59.971428 357.999512,59.998184 358.010071,60.334312 
	C359.854095,63.110989 361.476807,65.752579 363.569244,67.946098 
	C366.906433,71.444550 370.556122,74.644913 374.073669,77.971329 
	C374.073669,77.971329 374.001892,77.998863 374.119659,78.197159 
	C374.519257,78.590630 374.801117,78.785805 375.082947,78.980972 
	C375.082947,78.980980 375.000702,78.996391 375.009491,79.348091 
	C377.306366,84.552765 379.625702,89.391312 381.875183,94.262115 
	C385.224060,101.513321 389.624695,108.504570 391.579926,116.119423 
	C394.346741,126.894821 396.490662,137.800690 396.723480,149.259399 
	C397.125305,169.035126 394.213776,187.716354 385.475739,205.472717 
	C385.177277,206.079224 385.867889,207.172485 386.097504,208.038864 
	C386.060822,208.203644 386.024170,208.368439 385.580414,208.843246 
	C382.671509,212.404495 378.613495,215.071747 381.038666,220.171753 
z"/>
<path fill="#516568" opacity="1.000000" stroke="none" 
	d="
M244.197678,213.005478 
	C254.755630,210.640030 265.308868,208.253159 275.874023,205.920364 
	C279.752960,205.063904 283.642609,204.231415 287.558411,203.572479 
	C293.699249,202.539124 299.830750,205.903061 302.349030,211.628021 
	C309.429291,227.724091 316.481506,243.832520 323.524048,259.945129 
	C326.485840,266.721344 324.823853,273.243683 319.103638,277.532501 
	C315.510040,280.226837 304.901947,280.081116 301.884399,276.144409 
	C298.481506,271.704926 296.409271,266.198456 294.033173,261.029724 
	C290.192902,252.675995 286.521881,244.242798 282.899078,235.791824 
	C281.750641,233.112823 280.050934,232.632004 277.395874,233.300949 
	C267.781158,235.723373 258.142883,238.056061 248.489594,240.320694 
	C242.959686,241.617996 237.409180,242.860077 231.821304,243.868607 
	C226.092453,244.902557 218.759109,239.480026 218.049301,233.052673 
	C218.055679,208.771576 218.010498,185.345001 217.965317,161.918442 
	C217.965317,161.918442 217.987640,161.990967 218.247147,161.846863 
	C218.663940,161.073395 218.821228,160.444031 218.978500,159.814651 
	C224.504822,150.839920 239.010239,152.104080 242.993713,163.985489 
	C242.962082,179.243988 242.946823,193.670593 243.059036,208.096191 
	C243.071793,209.735474 243.800781,211.369186 244.197678,213.005478 
z"/>
<path fill="#33C3B5" opacity="1.000000" stroke="none" 
	d="
M271.597229,247.197052 
	C274.809052,247.657181 279.009552,247.356262 280.140686,249.075150 
	C282.603851,252.818283 278.009155,254.758118 276.120056,257.394348 
	C270.509918,265.223328 262.795654,270.202637 254.137878,273.934570 
	C240.365692,279.871094 226.407639,279.885254 212.359787,275.031494 
	C195.306381,269.139313 183.897781,256.916168 177.542023,240.704224 
	C171.167831,224.445221 172.418564,208.018997 181.790009,192.711472 
	C186.721970,184.655518 193.493393,178.362762 200.913651,172.727280 
	C202.346756,171.638870 204.369080,171.326263 206.119583,170.655777 
	C206.674896,170.936478 207.230194,171.217178 207.785492,171.497879 
	C206.832382,176.800003 205.924652,182.111191 204.872040,187.393494 
	C204.731171,188.100388 203.942581,188.767014 203.310883,189.274017 
	C193.269226,197.333069 189.233627,207.933228 188.947754,220.638824 
	C188.581741,236.905457 195.794769,248.855103 208.567474,257.985168 
	C218.356873,264.982727 229.328033,265.655670 240.776566,263.673920 
	C249.832886,262.106262 257.216888,257.824615 263.536011,251.158112 
	C265.377563,249.215302 268.602966,248.584244 271.597229,247.197052 
z"/>
<path fill="#45BFB2" opacity="1.000000" stroke="none" 
	d="
M327.919434,38.622654 
	C324.278992,38.071537 320.248932,37.725800 316.733948,36.196312 
	C306.058411,31.551054 295.096039,28.263096 283.413544,28.018461 
	C273.667847,27.814379 263.779022,26.984858 254.201706,28.274651 
	C244.401230,29.594498 234.652557,32.480743 225.343735,35.929695 
	C216.440399,39.228416 207.694214,43.445713 199.696747,48.542484 
	C192.993500,52.814442 186.947983,58.459717 181.553085,64.358337 
	C174.570724,71.992638 168.180222,80.239830 162.206253,88.697365 
	C158.744522,93.598244 156.601196,99.430367 153.864563,104.843407 
	C154.361145,105.171379 154.857742,105.499352 155.354324,105.827324 
	C157.725388,102.834457 160.060303,99.812080 162.475449,96.855202 
	C166.787842,91.575508 170.684387,85.848038 175.584961,81.179146 
	C186.091843,71.168983 197.923981,62.642113 211.334030,57.127136 
	C221.196091,53.071301 231.936600,51.203613 242.147339,47.929504 
	C253.388809,44.324875 264.836670,46.384003 276.138489,46.479324 
	C282.872833,46.536121 289.762268,48.670860 296.264801,50.827744 
	C305.496460,53.889870 314.945343,56.927849 323.352692,61.661263 
	C331.276398,66.122391 338.053528,72.665771 345.165070,78.500305 
	C347.847778,80.701286 349.934845,83.612213 352.498535,85.977211 
	C361.675507,94.443016 366.761230,105.741684 373.341339,115.993645 
	C374.441742,117.708054 374.481476,120.103226 374.703918,122.586777 
	C373.982361,122.992706 373.568176,122.995682 373.154022,122.998657 
	C365.609222,105.717102 355.389648,90.562103 340.868439,78.086464 
	C326.399261,65.655533 310.162781,56.983200 291.879822,52.548557 
	C275.880402,48.667805 259.655975,47.664658 243.071625,50.728096 
	C229.785980,53.182201 217.038940,56.607285 205.250046,63.063728 
	C192.321243,70.144440 180.286346,78.491737 170.759567,90.771622 
	C170.244995,91.455681 170.143738,91.768906 170.042480,92.082123 
	C170.042480,92.082123 170.013458,92.013184 169.729874,92.001328 
	C169.311432,92.354950 169.176590,92.720428 169.041748,93.085907 
	C169.041748,93.085907 169.015488,93.015549 168.738068,93.012878 
	C168.318344,93.367882 168.176056,93.725548 168.033768,94.083214 
	C168.033768,94.083214 168.014572,94.014420 167.742004,94.023315 
	C167.322159,94.382126 167.174881,94.732040 167.027588,95.081947 
	C167.027588,95.081947 167.013809,95.011703 166.718033,95.106430 
	C166.302780,95.825485 166.183304,96.449821 166.063843,97.074158 
	C166.063843,97.074158 166.007019,97.009254 165.726562,97.000381 
	C165.311096,97.355812 165.176056,97.720131 165.041031,98.084442 
	C165.041031,98.084442 165.016541,98.012665 164.680771,97.987282 
	C163.916153,98.999657 163.487305,100.037415 163.058456,101.075180 
	C163.058456,101.075180 163.009995,101.010735 162.736938,101.013992 
	C162.319382,101.372017 162.174881,101.726784 162.030380,102.081543 
	C162.030380,102.081543 162.016418,102.011681 161.716583,102.099350 
	C161.298141,102.816132 161.179520,103.445259 161.060913,104.074379 
	C161.060913,104.074379 161.008682,104.009987 160.735046,104.008728 
	C160.317734,104.365723 160.174042,104.723976 160.030350,105.082222 
	C160.030350,105.082222 160.015259,105.013283 159.760727,105.028366 
	C159.298950,105.356384 159.091721,105.669304 158.856934,106.266602 
	C158.906189,106.725281 158.983002,106.899574 159.059814,107.073860 
	C159.059814,107.073860 159.017654,107.014687 158.709961,107.093521 
	C158.289459,107.806152 158.176651,108.439934 158.063843,109.073723 
	C158.063843,109.073723 158.007935,109.009407 157.731003,108.994873 
	C157.311386,109.347481 157.168686,109.714630 157.026001,110.081772 
	C157.026001,110.081772 157.015152,110.010368 156.722015,110.099884 
	C156.301605,110.819260 156.174332,111.449135 156.047058,112.079002 
	C156.047058,112.079002 156.017883,112.014160 155.723419,112.107788 
	C155.303833,112.825539 155.178711,113.449661 155.053604,114.073776 
	C155.053604,114.073776 155.018356,114.010780 154.707275,114.080536 
	C154.282913,114.791389 154.169647,115.432487 154.056381,116.073586 
	C154.056381,116.073586 154.018463,116.011139 153.709930,116.078079 
	C153.285370,116.788544 153.169312,117.432060 153.053268,118.075577 
	C153.053268,118.075577 153.019135,118.011688 152.711792,118.078201 
	C152.286011,118.788101 152.167572,119.431480 152.049133,120.074867 
	C152.049149,120.074867 152.018463,120.010406 151.717468,120.074509 
	C150.586624,121.756783 149.756744,123.374939 148.583862,124.921066 
	C147.531662,123.224396 146.822464,121.599747 146.113281,119.975098 
	C148.405350,113.265251 150.211548,106.338974 153.085022,99.888107 
	C160.302689,83.684639 170.502914,69.355766 183.895889,57.791183 
	C197.222595,46.283817 212.323334,37.708229 229.151810,31.643528 
	C245.050171,25.914034 261.115906,24.192381 277.586365,25.131409 
	C292.767578,25.996927 307.640991,28.868797 321.446777,35.799976 
	C323.461334,36.811386 325.654724,37.466675 327.919434,38.622654 
z"/>
<path fill="#526668" opacity="1.000000" stroke="none" 
	d="
M252.140137,116.068497 
	C258.080566,125.717415 255.305450,137.614746 245.634186,143.820099 
	C237.000809,149.359482 224.913818,146.890762 218.108231,139.892532 
	C208.245224,129.750290 212.410477,110.448738 227.550064,106.395554 
	C234.277206,104.594574 242.533478,104.106018 247.976639,111.397018 
	C249.152985,112.972694 250.704651,114.268158 252.140137,116.068497 
z"/>
<path fill="#45BFB2" opacity="1.000000" stroke="none" 
	d="
M386.404358,207.876205 
	C385.867889,207.172485 385.177277,206.079224 385.475739,205.472717 
	C394.213776,187.716354 397.125305,169.035126 396.723480,149.259399 
	C396.490662,137.800690 394.346741,126.894821 391.579926,116.119423 
	C389.624695,108.504570 385.224060,101.513321 381.875183,94.262115 
	C379.625702,89.391312 377.306366,84.552765 375.030212,79.311661 
	C385.245636,91.306152 391.774078,105.593147 395.849915,120.930214 
	C399.413147,134.338348 401.196747,148.187668 399.853027,161.999619 
	C398.303070,177.931870 395.913239,193.869049 386.404358,207.876205 
z"/>
<path fill="#5BC2B8" opacity="1.000000" stroke="none" 
	d="
M378.010864,131.001984 
	C379.998779,139.098984 382.441193,147.116379 383.876312,155.310196 
	C386.544922,170.547012 384.472290,185.647720 380.928619,200.513565 
	C379.723694,205.568207 377.263458,210.314484 375.562378,215.265427 
	C375.040680,216.783844 375.135529,218.514099 374.972656,220.568542 
	C374.997284,220.989731 374.986572,220.969467 374.629700,220.975662 
	C373.189575,222.318893 372.106354,223.655930 370.753357,225.201813 
	C368.618958,227.907120 366.754333,230.403564 364.889740,232.900024 
	C368.933197,223.231415 373.774750,213.810013 376.861176,203.845001 
	C384.285217,179.875275 384.319733,155.719315 376.520813,131.376831 
	C377.186401,131.000458 377.598633,131.001221 378.010864,131.001984 
z"/>
<path fill="#889395" opacity="1.000000" stroke="none" 
	d="
M217.615417,162.175476 
	C218.010498,185.345001 218.055679,208.771576 218.040009,232.673889 
	C217.632401,232.483887 217.005280,231.828247 216.980896,231.150894 
	C216.607544,220.784195 216.005371,210.412506 216.078751,200.046387 
	C216.167526,187.506256 216.843597,174.970291 217.615417,162.175476 
z"/>
<path fill="#45BFB2" opacity="1.000000" stroke="none" 
	d="
M364.910217,232.917984 
	C366.754333,230.403564 368.618958,227.907120 371.013428,225.409134 
	C372.677155,225.922302 373.811066,226.437012 374.962677,227.317505 
	C375.002106,228.171432 375.023804,228.659561 375.045532,229.147690 
	C374.716553,229.583755 374.387573,230.019806 373.639099,230.778671 
	C372.823944,231.783951 372.428284,232.466415 372.032654,233.148895 
	C372.013916,233.481781 371.862762,233.735931 371.011932,233.994965 
	C369.623291,235.038803 368.801941,235.999023 367.884827,237.324036 
	C367.887451,238.148468 367.985840,238.608124 368.084229,239.067780 
	C368.084229,239.067780 367.998871,239.014206 367.698242,238.952164 
	C367.282349,239.288498 367.167114,239.686890 367.051880,240.085281 
	C367.051880,240.085281 367.013458,240.014648 366.722900,239.990234 
	C366.302216,240.339767 366.172119,240.713715 366.042023,241.087662 
	C366.042023,241.087662 366.016510,241.016479 365.725494,240.990204 
	C365.302979,241.338547 365.171509,241.713150 365.040009,242.087753 
	C365.040009,242.087753 365.010742,242.007950 364.728943,241.892548 
	C364.000610,241.884537 363.554108,241.991943 363.042847,241.971436 
	C362.901093,241.793503 362.824127,241.743469 362.747162,241.693451 
	C362.864441,241.831284 362.981720,241.969116 363.023193,242.438782 
	C362.983978,243.205673 363.020538,243.640732 363.057098,244.075790 
	C363.057098,244.075790 363.004456,244.006149 362.708008,243.925812 
	C361.964142,243.969116 361.516724,244.092773 360.962738,243.951401 
	C360.343079,243.134094 359.829987,242.581848 359.254700,241.708344 
	C359.140930,241.175156 359.089325,240.963211 359.037689,240.751251 
	C358.971222,240.435196 359.078735,240.197983 359.943054,239.978302 
	C361.337738,238.553604 362.149597,237.190201 362.961426,235.826797 
	C362.961426,235.826797 362.995270,235.423737 363.375122,235.168610 
	C364.146271,234.236420 364.537567,233.559357 364.928864,232.882294 
	C364.928864,232.882278 364.930695,232.935944 364.910217,232.917984 
z"/>
<path fill="#D8DDDC" opacity="1.000000" stroke="none" 
	d="
M408.931824,205.480255 
	C408.840515,202.400620 408.789398,198.915665 408.426788,195.176590 
	C408.797058,190.601334 409.478851,186.280197 410.160645,181.959061 
	C410.639801,182.020813 411.118988,182.082565 411.598145,182.144318 
	C412.974915,189.972778 410.987396,197.525009 408.931824,205.480255 
z"/>
<path fill="#BFCACB" opacity="1.000000" stroke="none" 
	d="
M244.109253,212.543823 
	C243.800781,211.369186 243.071793,209.735474 243.059036,208.096191 
	C242.946823,193.670593 242.962082,179.243988 242.970474,164.340851 
	C243.336914,165.352417 243.956223,166.839310 243.964111,168.329437 
	C244.041336,182.913376 244.016602,197.497833 244.109253,212.543823 
z"/>
<path fill="#45BFB2" opacity="1.000000" stroke="none" 
	d="
M374.027954,77.616669 
	C370.556122,74.644913 366.906433,71.444550 363.569244,67.946098 
	C361.476807,65.752579 359.854095,63.110989 358.025208,60.302025 
	C363.347290,65.709747 368.664734,71.485878 374.027954,77.616669 
z"/>
<path fill="#65BBB0" opacity="1.000000" stroke="none" 
	d="
M145.935928,120.327133 
	C146.822464,121.599747 147.531662,123.224396 148.515518,125.259430 
	C148.565536,127.489426 148.340866,129.309036 148.116196,131.128632 
	C146.984970,132.679703 145.853760,134.230774 144.374222,135.488159 
	C143.997437,133.115677 143.968979,131.036865 143.940506,128.958069 
	C144.546539,126.198433 145.152557,123.438797 145.935928,120.327133 
z"/>
<path fill="#D7F5F3" opacity="1.000000" stroke="none" 
	d="
M143.569885,129.117996 
	C143.968979,131.036865 143.997437,133.115677 144.082062,135.634857 
	C143.945709,139.690033 143.753220,143.304840 143.560715,146.919632 
	C143.054642,146.884735 142.548569,146.849838 142.042496,146.814941 
	C138.994781,140.834686 142.894547,135.126770 143.569885,129.117996 
z"/>
<path fill="#45BFB2" opacity="1.000000" stroke="none" 
	d="
M357.944244,59.653259 
	C353.074524,56.188286 348.083984,52.405140 343.063049,48.270607 
	C347.962921,51.724510 352.893158,55.529800 357.944244,59.653259 
z"/>
<path fill="#5BC2B8" opacity="1.000000" stroke="none" 
	d="
M359.316895,242.029602 
	C359.829987,242.581848 360.343079,243.134094 360.915955,244.264206 
	C361.003540,245.255402 361.031311,245.668762 361.059052,246.082108 
	C361.059052,246.082108 361.009186,246.021606 360.739044,246.027527 
	C360.324463,246.384338 360.180054,246.735245 360.035614,247.086136 
	C360.035614,247.086136 360.016418,247.016281 359.741455,247.025009 
	C359.323639,247.384750 359.180817,247.735779 359.037964,248.086792 
	C359.037964,248.086792 359.016724,248.016556 358.739410,248.021088 
	C358.321777,248.379608 358.181427,248.733627 358.041107,249.087631 
	C358.041107,249.087631 358.010773,249.010513 357.676697,248.925201 
	C356.222015,248.559097 355.101410,248.278290 354.041016,247.725433 
	C354.050018,247.274826 353.998749,247.096268 353.947479,246.917709 
	C353.947479,246.917709 353.981567,246.981323 354.272552,246.917603 
	C354.714172,246.438309 354.864807,246.022766 355.015442,245.607208 
	C355.015442,245.607208 354.892029,245.420547 355.319763,245.198334 
	C355.839874,244.502838 355.932312,244.029556 356.024719,243.556259 
	C355.943573,243.310089 356.018372,243.127975 356.751343,242.973724 
	C357.499023,242.595551 357.744476,242.253540 357.989929,241.911530 
	C357.989929,241.911530 357.980408,241.982559 358.295135,242.043976 
	C358.845551,242.080139 359.081207,242.054871 359.316895,242.029602 
z"/>
<path fill="#45BFB2" opacity="1.000000" stroke="none" 
	d="
M339.938904,45.636253 
	C336.089996,43.845657 332.105347,41.728870 328.078644,39.264809 
	C331.958801,41.048386 335.880951,43.179226 339.938904,45.636253 
z"/>
<path fill="#45BFB2" opacity="1.000000" stroke="none" 
	d="
M381.374939,219.978333 
	C378.613495,215.071747 382.671509,212.404495 385.499359,209.083160 
	C384.454010,212.603668 383.082611,216.194290 381.374939,219.978333 
z"/>
<path fill="#D2F9F5" opacity="1.000000" stroke="none" 
	d="
M351.992218,252.822479 
	C350.166107,254.062576 348.339996,255.302658 346.513885,256.542725 
	C346.181885,256.328278 345.849884,256.113800 345.517883,255.899353 
	C347.454346,253.641830 349.390778,251.384323 351.651276,249.384094 
	C351.980957,250.701736 351.986603,251.762115 351.992218,252.822479 
z"/>
<path fill="#C1F5F1" opacity="1.000000" stroke="none" 
	d="
M352.350586,252.897003 
	C351.986603,251.762115 351.980957,250.701736 351.964722,249.243683 
	C351.939758,248.492218 352.085236,248.225632 352.904541,248.012817 
	C353.605988,247.985428 353.793396,247.991470 353.980774,247.997498 
	C355.101410,248.278290 356.222015,248.559097 357.710022,248.949890 
	C356.287872,250.363754 354.498413,251.667633 352.350586,252.897003 
z"/>
<path fill="#B8F4F0" opacity="1.000000" stroke="none" 
	d="
M148.449554,130.941788 
	C148.340866,129.309036 148.565536,127.489426 148.858521,125.331459 
	C149.756744,123.374939 150.586624,121.756783 151.753113,120.076561 
	C150.987473,123.594650 149.885193,127.174797 148.449554,130.941788 
z"/>
<path fill="#5BC2B8" opacity="1.000000" stroke="none" 
	d="
M373.175476,123.339737 
	C373.568176,122.995682 373.982361,122.992706 374.707764,122.983780 
	C375.018982,122.977829 375.016937,122.983231 375.047607,123.312271 
	C375.717743,124.763786 376.357208,125.886253 376.996704,127.008713 
	C377.006378,127.449150 377.016052,127.889595 376.819519,128.660400 
	C376.613281,128.990753 376.173828,128.989624 376.173828,128.989624 
	C375.181519,127.220024 374.189209,125.450424 373.175476,123.339737 
z"/>
<path fill="#5BC2B8" opacity="1.000000" stroke="none" 
	d="
M362.653198,235.968079 
	C362.149597,237.190201 361.337738,238.553604 360.145081,239.928650 
	C360.624512,238.663330 361.484741,237.386353 362.653198,235.968079 
z"/>
<path fill="#5BC2B8" opacity="1.000000" stroke="none" 
	d="
M367.980591,236.959244 
	C368.801941,235.999023 369.623291,235.038803 370.790894,234.055466 
	C370.674377,234.951401 370.211609,235.870453 369.159119,236.876709 
	C368.373169,236.962372 368.176880,236.960815 367.980591,236.959244 
z"/>
<path fill="#45BFB2" opacity="1.000000" stroke="none" 
	d="
M376.099609,129.322357 
	C376.173828,128.989624 376.613281,128.990753 376.833618,128.990494 
	C377.510132,129.541702 377.966339,130.093170 378.216705,130.823303 
	C377.598633,131.001221 377.186401,131.000458 376.465088,131.002533 
	C376.112488,130.555283 376.068939,130.105179 376.099609,129.322357 
z"/>
<path fill="#45BFB2" opacity="1.000000" stroke="none" 
	d="
M342.958984,47.653740 
	C342.094116,47.516594 341.112610,47.068775 340.081482,46.270092 
	C340.968719,46.393841 341.905518,46.868458 342.958984,47.653740 
z"/>
<path fill="#ADF1ED" opacity="1.000000" stroke="none" 
	d="
M163.375732,100.976074 
	C163.487305,100.037415 163.916153,98.999657 164.715317,98.002922 
	C164.621429,98.988289 164.157227,99.932632 163.375732,100.976074 
z"/>
<path fill="#5BC2B8" opacity="1.000000" stroke="none" 
	d="
M379.084259,223.074860 
	C378.722076,223.870834 378.359924,224.666794 377.611145,225.422058 
	C377.132843,225.236511 377.041107,225.091705 377.011414,224.641296 
	C377.694763,223.872009 378.316132,223.408325 378.974182,222.977203 
	C379.010864,223.009735 379.084259,223.074860 379.084259,223.074860 
z"/>
<path fill="#5BC2B8" opacity="1.000000" stroke="none" 
	d="
M364.640991,232.986633 
	C364.537567,233.559357 364.146271,234.236420 363.438629,234.976608 
	C363.532593,234.390152 363.942871,233.740570 364.640991,232.986633 
z"/>
<path fill="#5BC2B8" opacity="1.000000" stroke="none" 
	d="
M372.314819,233.025528 
	C372.428284,232.466415 372.823944,231.783951 373.536011,231.036865 
	C373.433960,231.615555 373.015503,232.258865 372.314819,233.025528 
z"/>
<path fill="#5BC2B8" opacity="1.000000" stroke="none" 
	d="
M375.331116,229.028290 
	C375.023804,228.659561 375.002106,228.171432 375.191711,227.277618 
	C375.403046,226.871948 375.854095,226.763336 376.106750,226.829590 
	C376.531158,226.924362 376.702942,226.952866 376.874756,226.981384 
	C376.455414,227.623886 376.036041,228.266388 375.331116,229.028290 
z"/>
<path fill="#C1F5F1" opacity="1.000000" stroke="none" 
	d="
M363.346741,243.995819 
	C363.020538,243.640732 362.983978,243.205673 362.973969,242.385712 
	C363.000519,242.000809 363.107605,242.099365 363.107605,242.099365 
	C363.554108,241.991943 364.000610,241.884537 364.760590,241.920914 
	C364.594849,242.681747 364.115601,243.298813 363.346741,243.995819 
z"/>
<path fill="#C1F5F1" opacity="1.000000" stroke="none" 
	d="
M361.348389,245.998520 
	C361.031311,245.668762 361.003540,245.255402 361.022522,244.529251 
	C361.516724,244.092773 361.964142,243.969116 362.744873,243.949173 
	C362.598022,244.673569 362.117859,245.294250 361.348389,245.998520 
z"/>
<path fill="#5BC2B8" opacity="1.000000" stroke="none" 
	d="
M378.961639,220.954620 
	C379.383148,220.925232 379.804657,220.895844 380.542175,220.843140 
	C380.463440,221.495346 380.068695,222.170883 379.379089,222.960632 
	C379.084259,223.074860 379.010864,223.009735 378.982788,222.645782 
	C378.957001,221.839432 378.959320,221.397034 378.961639,220.954620 
z"/>
<path fill="#B8F4F0" opacity="1.000000" stroke="none" 
	d="
M154.365143,115.973991 
	C154.169647,115.432487 154.282913,114.791389 154.743317,114.082535 
	C154.951584,114.634659 154.812744,115.254524 154.365143,115.973991 
z"/>
<path fill="#B8F4F0" opacity="1.000000" stroke="none" 
	d="
M155.364441,113.974846 
	C155.178711,113.449661 155.303833,112.825539 155.758636,112.103043 
	C155.950653,112.628418 155.812958,113.252167 155.364441,113.974846 
z"/>
<path fill="#B8F4F0" opacity="1.000000" stroke="none" 
	d="
M156.357376,111.977631 
	C156.174332,111.449135 156.301605,110.819260 156.758057,110.097458 
	C156.947372,110.629105 156.807541,111.252678 156.357376,111.977631 
z"/>
<path fill="#C1F5F1" opacity="1.000000" stroke="none" 
	d="
M367.884827,237.324036 
	C368.176880,236.960815 368.373169,236.962372 368.862793,236.990036 
	C369.005859,237.636581 368.855560,238.257019 368.394745,238.972610 
	C367.985840,238.608124 367.887451,238.148468 367.884827,237.324036 
z"/>
<path fill="#B8F4F0" opacity="1.000000" stroke="none" 
	d="
M158.369507,108.969261 
	C158.176651,108.439934 158.289459,107.806152 158.746246,107.091629 
	C158.951859,107.628860 158.813507,108.246826 158.369507,108.969261 
z"/>
<path fill="#B8F4F0" opacity="1.000000" stroke="none" 
	d="
M153.362396,117.975998 
	C153.169312,117.432060 153.285370,116.788544 153.746384,116.080528 
	C153.951401,116.636162 153.811447,117.256294 153.362396,117.975998 
z"/>
<path fill="#B8F4F0" opacity="1.000000" stroke="none" 
	d="
M152.359955,119.977539 
	C152.167572,119.431480 152.286011,118.788101 152.747955,118.080307 
	C152.951218,118.637337 152.810989,119.258781 152.359955,119.977539 
z"/>
<path fill="#ADF1ED" opacity="1.000000" stroke="none" 
	d="
M161.369705,103.973984 
	C161.179520,103.445259 161.298141,102.816132 161.752197,102.098763 
	C161.951263,102.631538 161.814880,103.252563 161.369705,103.973984 
z"/>
<path fill="#ADF1ED" opacity="1.000000" stroke="none" 
	d="
M166.372437,96.972824 
	C166.183304,96.449821 166.302780,95.825485 166.753738,95.103844 
	C166.950485,95.628189 166.815750,96.249832 166.372437,96.972824 
z"/>
<path fill="#889395" opacity="1.000000" stroke="none" 
	d="
M218.688782,159.973145 
	C218.821228,160.444031 218.663940,161.073395 218.210419,161.856445 
	C218.075821,161.383942 218.237442,160.757782 218.688782,159.973145 
z"/>
<path fill="#D2F9F5" opacity="1.000000" stroke="none" 
	d="
M357.690979,241.996780 
	C357.744476,242.253540 357.499023,242.595551 356.911896,242.978210 
	C356.844177,242.706589 357.118134,242.394318 357.690979,241.996780 
z"/>
<path fill="#D2F9F5" opacity="1.000000" stroke="none" 
	d="
M355.743591,243.776016 
	C355.932312,244.029556 355.839874,244.502838 355.400116,245.120483 
	C355.189331,244.841827 355.325897,244.418793 355.743591,243.776016 
z"/>
<path fill="#B8F4F0" opacity="1.000000" stroke="none" 
	d="
M157.296646,110.024750 
	C157.168686,109.714630 157.311386,109.347481 157.770477,109.010872 
	C157.913696,109.350182 157.740494,109.658958 157.296646,110.024750 
z"/>
<path fill="#ADF1ED" opacity="1.000000" stroke="none" 
	d="
M158.884491,105.982224 
	C159.091721,105.669304 159.298950,105.356384 159.795151,105.036133 
	C160.084106,105.028801 160.007401,105.521629 159.690704,105.757072 
	C159.374008,105.992516 158.884476,105.982224 158.884491,105.982224 
z"/>
<path fill="#D2F9F5" opacity="1.000000" stroke="none" 
	d="
M354.771484,245.793732 
	C354.864807,246.022766 354.714172,246.438309 354.236572,246.920151 
	C354.115540,246.651047 354.321533,246.315643 354.771484,245.793732 
z"/>
<path fill="#C1F5F1" opacity="1.000000" stroke="none" 
	d="
M360.303131,247.022705 
	C360.180054,246.735245 360.324463,246.384338 360.777679,246.034149 
	C360.914520,246.342987 360.742584,246.651123 360.303131,247.022705 
z"/>
<path fill="#D2F9F5" opacity="1.000000" stroke="none" 
	d="
M354.041016,247.725433 
	C353.793396,247.991470 353.605988,247.985428 353.137573,247.965286 
	C353.045807,247.652985 353.235016,247.354782 353.685852,246.987152 
	C353.998749,247.096268 354.050018,247.274826 354.041016,247.725433 
z"/>
<path fill="#C1F5F1" opacity="1.000000" stroke="none" 
	d="
M359.304932,248.022675 
	C359.180817,247.735779 359.323639,247.384750 359.776489,247.034271 
	C359.914917,247.342728 359.743408,247.650650 359.304932,248.022675 
z"/>
<path fill="#C1F5F1" opacity="1.000000" stroke="none" 
	d="
M358.307068,249.022858 
	C358.181427,248.733627 358.321777,248.379608 358.774597,248.031403 
	C358.915771,248.344162 358.744385,248.651123 358.307068,249.022858 
z"/>
<path fill="#B8F4F0" opacity="1.000000" stroke="none" 
	d="
M158.856934,106.266602 
	C158.884476,105.982224 159.374008,105.992516 159.618805,105.995857 
	C159.773270,106.315041 159.682938,106.630875 159.326202,107.010284 
	C158.983002,106.899574 158.906189,106.725281 158.856934,106.266602 
z"/>
<path fill="#ADF1ED" opacity="1.000000" stroke="none" 
	d="
M162.300735,102.023987 
	C162.174881,101.726784 162.319382,101.372017 162.774933,101.027451 
	C162.914368,101.347244 162.742722,101.656837 162.300735,102.023987 
z"/>
<path fill="#C1F5F1" opacity="1.000000" stroke="none" 
	d="
M365.305908,242.023834 
	C365.171509,241.713150 365.302979,241.338547 365.761047,241.003052 
	C365.915649,241.348083 365.743713,241.654007 365.305908,242.023834 
z"/>
<path fill="#D2F9F5" opacity="1.000000" stroke="none" 
	d="
M359.254700,241.708344 
	C359.081207,242.054871 358.845551,242.080139 358.262665,242.028839 
	C358.113098,241.635071 358.310730,241.317856 358.773010,240.875946 
	C359.089325,240.963211 359.140930,241.175156 359.254700,241.708344 
z"/>
<path fill="#C1F5F1" opacity="1.000000" stroke="none" 
	d="
M366.306641,241.023102 
	C366.172119,240.713715 366.302216,240.339767 366.760071,240.005463 
	C366.915649,240.349594 366.743469,240.654083 366.306641,241.023102 
z"/>
<path fill="#C1F5F1" opacity="1.000000" stroke="none" 
	d="
M367.319092,240.031143 
	C367.167114,239.686890 367.282349,239.288498 367.741333,238.974655 
	C367.918793,239.365128 367.752563,239.671066 367.319092,240.031143 
z"/>
<path fill="#45BFB2" opacity="1.000000" stroke="none" 
	d="
M376.936523,226.746979 
	C376.702942,226.952866 376.531158,226.924362 376.137878,226.655945 
	C375.916351,226.416016 375.938171,226.059769 376.234161,226.051544 
	C376.727600,226.043533 376.925018,226.043747 377.122406,226.043945 
	C377.122406,226.043945 376.998260,226.512573 376.936523,226.746979 
z"/>
<path fill="#5BC2B8" opacity="1.000000" stroke="none" 
	d="
M377.218811,226.031189 
	C376.925018,226.043747 376.727600,226.043533 376.226593,225.786011 
	C375.919189,225.352127 375.915314,225.175552 376.171143,224.990143 
	C376.603699,224.969849 376.776550,224.958374 376.949402,224.946884 
	C377.041107,225.091705 377.132843,225.236511 377.323730,225.618958 
	C377.422943,225.856598 377.315186,226.018448 377.218811,226.031189 
z"/>
<path fill="#45BFB2" opacity="1.000000" stroke="none" 
	d="
M375.001343,78.721771 
	C374.801117,78.785805 374.519257,78.590630 374.125610,78.159195 
	C374.315735,78.102821 374.617737,78.282700 375.001343,78.721771 
z"/>
<path fill="#ADF1ED" opacity="1.000000" stroke="none" 
	d="
M160.301392,105.025665 
	C160.174042,104.723976 160.317734,104.365723 160.773712,104.023705 
	C160.914810,104.349655 160.743607,104.659378 160.301392,105.025665 
z"/>
<path fill="#ADF1ED" opacity="1.000000" stroke="none" 
	d="
M170.295715,92.010651 
	C170.143738,91.768906 170.244995,91.455681 170.610565,91.086838 
	C170.766220,91.333870 170.657562,91.636520 170.295715,92.010651 
z"/>
<path fill="#ADF1ED" opacity="1.000000" stroke="none" 
	d="
M169.310806,93.026825 
	C169.176590,92.720428 169.311432,92.354950 169.764954,92.014290 
	C169.915695,92.348648 169.747787,92.658203 169.310806,93.026825 
z"/>
<path fill="#ADF1ED" opacity="1.000000" stroke="none" 
	d="
M168.304001,94.026215 
	C168.176056,93.725548 168.318344,93.367882 168.773438,93.025421 
	C168.915588,93.350166 168.744919,93.659691 168.304001,94.026215 
z"/>
<path fill="#ADF1ED" opacity="1.000000" stroke="none" 
	d="
M167.296967,95.020782 
	C167.174881,94.732040 167.322159,94.382126 167.776520,94.032478 
	C167.911179,94.341698 167.738754,94.650658 167.296967,95.020782 
z"/>
<path fill="#ADF1ED" opacity="1.000000" stroke="none" 
	d="
M165.310089,98.027008 
	C165.176056,97.720131 165.311096,97.355812 165.766144,97.017525 
	C165.917160,97.352226 165.748138,97.660896 165.310089,98.027008 
z"/>
<path fill="#45BFB2" opacity="1.000000" stroke="none" 
	d="
M377.011414,224.641296 
	C376.776550,224.958374 376.603699,224.969849 375.932068,224.732880 
	C375.284393,223.312775 375.135498,222.141129 374.986572,220.969467 
	C374.986572,220.969467 374.997284,220.989731 374.983215,220.983734 
	C376.034790,220.980453 377.100433,220.983154 378.563843,220.970245 
	C378.959320,221.397034 378.957001,221.839432 378.946075,222.613251 
	C378.316132,223.408325 377.694763,223.872009 377.011414,224.641296 
z"/>
<path fill="#45BFB2" opacity="1.000000" stroke="none" 
	d="
M377.001709,126.636719 
	C376.357208,125.886253 375.717743,124.763786 375.055206,123.307732 
	C375.690308,124.070999 376.348511,125.167862 377.001709,126.636719 
z"/>
<path fill="#24C6B7" opacity="1.000000" stroke="none" 
	d="
M374.629700,220.975662 
	C375.135498,222.141129 375.284393,223.312775 375.672363,224.741699 
	C375.915314,225.175552 375.919189,225.352127 375.930603,225.794235 
	C375.938171,226.059769 375.916351,226.416016 375.885223,226.589676 
	C375.854095,226.763336 375.403046,226.871948 375.174011,226.911835 
	C373.811066,226.437012 372.677155,225.922302 371.283203,225.200272 
	C372.106354,223.655930 373.189575,222.318893 374.629700,220.975662 
z"/>
<path fill="#5BC2B8" opacity="1.000000" stroke="none" 
	d="
M363.049744,242.053894 
	C362.981720,241.969116 362.864441,241.831284 362.747162,241.693451 
	C362.824127,241.743469 362.901093,241.793503 363.042847,241.971451 
	C363.107605,242.099365 363.000519,242.000809 363.049744,242.053894 
z"/>
</svg>