<svg version="1.1" id="Layer_1" xmlns="http://www.w3.org/2000/svg" xmlns:xlink="http://www.w3.org/1999/xlink" x="0px" y="0px"
	 width="100%" viewBox="0 0 55 55" enable-background="new 0 0 55 55" xml:space="preserve">
<path fill="#227DF3" opacity="1.000000" stroke="none" 
	d="
M56.000000,22.000000 
	C56.000000,26.024544 56.000000,30.049088 55.673721,34.692032 
	C55.212284,35.406597 54.990013,35.477856 54.954380,35.602478 
	C52.171680,45.334633 46.369080,52.056549 36.241211,54.560318 
	C35.739502,54.684349 35.409798,55.504169 35.000000,56.000000 
	C35.000000,56.000000 34.500000,56.000000 34.244865,55.530632 
	C33.989727,49.110733 33.989727,43.160202 33.989727,37.092525 
	C38.918957,36.762398 41.450535,34.617847 40.501720,29.369236 
	C38.245602,29.076086 36.174911,28.807030 33.392036,28.445435 
	C34.960892,25.368975 31.190016,20.651491 36.782581,19.896166 
	C40.297356,19.421467 41.351898,18.310610 41.225121,15.014939 
	C41.084705,11.364572 38.659023,11.276659 36.051964,11.179446 
	C30.332722,10.966187 25.716221,14.523618 24.496674,20.233135 
	C23.889099,23.077593 23.472691,25.962883 22.969809,28.829704 
	C22.587437,28.496384 22.205065,28.163061 21.822693,27.829741 
	C19.988459,29.170479 17.019388,30.205374 16.558321,31.916183 
	C15.623864,35.383522 18.293587,36.639626 21.599483,36.898582 
	C22.370422,36.958973 23.620815,38.658169 23.614985,39.596909 
	C23.581009,45.065670 23.238361,50.532509 23.000000,56.000000 
	C23.000000,56.000000 22.500000,56.000000 22.086514,55.678997 
	C12.164428,52.372261 5.454350,46.441181 2.144910,36.886826 
	C2.012603,36.504856 1.392712,36.291771 1.000000,36.000000 
	C1.000000,31.643101 1.000000,27.286201 1.338625,22.329863 
	C4.982153,11.988376 10.636786,4.626742 21.285742,2.258663 
	C21.601511,2.188443 21.765333,1.434930 22.000000,1.000000 
	C26.024544,1.000000 30.049088,1.000000 34.671696,1.338813 
	C35.483673,1.919523 35.658848,2.316390 35.917091,2.380940 
	C45.538818,4.785987 51.793072,10.614157 54.375111,20.294636 
	C54.552635,20.960207 55.441792,21.435968 56.000000,22.000000 
z"/>
<path fill="#E8F1FE" opacity="1.000000" stroke="none" 
	d="
M23.458069,56.000000 
	C23.238361,50.532509 23.581009,45.065670 23.614985,39.596909 
	C23.620815,38.658169 22.370422,36.958973 21.599483,36.898582 
	C18.293587,36.639626 15.623864,35.383522 16.558321,31.916183 
	C17.019388,30.205374 19.988459,29.170479 21.822693,27.829741 
	C22.205065,28.163061 22.587437,28.496384 22.969809,28.829704 
	C23.472691,25.962883 23.889099,23.077593 24.496674,20.233135 
	C25.716221,14.523618 30.332722,10.966187 36.051964,11.179446 
	C38.659023,11.276659 41.084705,11.364572 41.225121,15.014939 
	C41.351898,18.310610 40.297356,19.421467 36.782581,19.896166 
	C31.190016,20.651491 34.960892,25.368975 33.392036,28.445435 
	C36.174911,28.807030 38.245602,29.076086 40.501720,29.369236 
	C41.450535,34.617847 38.918957,36.762398 33.989727,37.092525 
	C33.989727,43.160202 33.989727,49.110733 33.994865,55.530632 
	C30.638712,56.000000 27.277426,56.000000 23.458069,56.000000 
z"/>
<path fill="#F3F8FE" opacity="1.000000" stroke="none" 
	d="
M21.531086,1.000000 
	C21.765333,1.434930 21.601511,2.188443 21.285742,2.258663 
	C10.636786,4.626742 4.982153,11.988376 1.338625,21.865211 
	C1.000000,15.073850 1.000000,8.147699 1.000000,1.000000 
	C7.685770,1.000000 14.373973,1.000000 21.531086,1.000000 
z"/>
<path fill="#F3F8FE" opacity="1.000000" stroke="none" 
	d="
M56.000000,21.531088 
	C55.441792,21.435968 54.552635,20.960207 54.375111,20.294636 
	C51.793072,10.614157 45.538818,4.785987 35.917091,2.380940 
	C35.658848,2.316390 35.483673,1.919523 35.134880,1.338813 
	C41.926151,1.000000 48.852299,1.000000 56.000000,1.000000 
	C56.000000,7.685770 56.000000,14.373973 56.000000,21.531088 
z"/>
<path fill="#F3F8FE" opacity="1.000000" stroke="none" 
	d="
M35.468910,56.000000 
	C35.409798,55.504169 35.739502,54.684349 36.241211,54.560318 
	C46.369080,52.056549 52.171680,45.334633 54.954380,35.602478 
	C54.990013,35.477856 55.212284,35.406597 55.673721,35.155212 
	C56.000000,41.926151 56.000000,48.852299 56.000000,56.000000 
	C49.314232,56.000000 42.626026,56.000000 35.468910,56.000000 
z"/>
<path fill="#F5F9FE" opacity="1.000000" stroke="none" 
	d="
M1.000000,36.469044 
	C1.392712,36.291771 2.012603,36.504856 2.144910,36.886826 
	C5.454350,46.441181 12.164428,52.372261 21.836514,55.678997 
	C15.075719,56.000000 8.151438,56.000000 1.000000,56.000000 
	C1.000000,49.647823 1.000000,43.292953 1.000000,36.469044 
z"/>
</svg>