<svg version="1.1" id="Layer_1" xmlns="http://www.w3.org/2000/svg" xmlns:xlink="http://www.w3.org/1999/xlink" x="0px" y="0px"
	 width="100%" viewBox="0 0 55 55" enable-background="new 0 0 55 55" xml:space="preserve">
<path fill="#FFFFFF" opacity="1.000000" stroke="none" 
	d="
M35.000000,1.000000 
	C41.931198,1.000000 48.862400,1.000000 56.000000,1.000000 
	C56.000000,8.686312 56.000000,16.374464 55.781158,24.502657 
	C55.562317,24.942698 55.121082,24.930201 54.909164,24.584045 
	C54.165051,23.862337 53.636852,23.166239 53.100052,23.159544 
	C45.613785,23.066183 38.125816,23.028736 30.640356,23.130915 
	C30.138527,23.137762 29.653496,24.375057 29.095879,25.484936 
	C29.020777,27.090656 29.135057,28.268667 28.977978,29.409309 
	C28.383114,33.728874 30.061159,35.544910 34.512825,35.055038 
	C37.228168,34.756233 40.003204,34.999870 43.439133,34.999870 
	C42.412983,38.169502 41.632198,40.581226 40.431587,42.995762 
	C37.061310,43.663353 34.138165,44.511845 31.154814,44.955269 
	C24.623312,45.926060 17.605000,41.286442 14.000797,33.389465 
	C14.027311,29.304176 14.054074,25.664068 14.310287,21.646969 
	C17.634954,16.227465 22.796473,14.157778 28.021858,12.669127 
	C30.373667,11.999125 33.214432,13.032578 35.831470,13.310709 
	C37.743011,13.513862 40.115131,14.546441 41.450397,13.773250 
	C43.352921,12.671581 44.493702,10.254418 45.959877,8.399195 
	C43.987019,6.934692 42.056538,5.408020 40.027863,4.025426 
	C38.414143,2.925634 36.680439,2.001896 35.000000,1.000000 
z"/>
<path fill="#34A853" opacity="1.000000" stroke="none" 
	d="
M14.001044,33.834648 
	C17.605000,41.286442 24.623312,45.926060 31.154814,44.955269 
	C34.138165,44.511845 37.061310,43.663353 40.594402,43.309704 
	C42.837009,45.083534 44.496975,46.546238 45.999535,48.333618 
	C43.218513,50.443508 40.596375,52.230892 37.970524,54.012810 
	C36.984783,54.681744 35.990429,55.337978 35.000000,56.000000 
	C35.000000,56.000000 34.500000,56.000000 34.220490,55.673935 
	C33.304409,54.935043 32.667831,54.522217 31.653084,54.057999 
	C30.513033,54.028915 29.751156,54.051228 28.652557,54.044876 
	C27.865877,54.042885 27.415916,54.069553 26.637016,54.091904 
	C25.872051,54.725052 25.436026,55.362526 25.000000,56.000000 
	C25.000000,56.000000 24.500000,56.000000 24.115793,55.652416 
	C15.286678,53.225971 9.314775,48.250748 6.312904,40.005474 
	C9.084722,37.842583 11.542883,35.838615 14.001044,33.834648 
z"/>
<path fill="#E94335" opacity="1.000000" stroke="none" 
	d="
M34.750000,1.000000 
	C36.680439,2.001896 38.414143,2.925634 40.027863,4.025426 
	C42.056538,5.408020 43.987019,6.934692 45.959877,8.399195 
	C44.493702,10.254418 43.352921,12.671581 41.450397,13.773250 
	C40.115131,14.546441 37.743011,13.513862 35.831470,13.310709 
	C33.214432,13.032578 30.373667,11.999125 28.021858,12.669127 
	C22.796473,14.157778 17.634954,16.227465 13.926037,21.259544 
	C10.869079,19.786591 8.425823,18.324068 5.998580,16.506493 
	C7.053180,14.556013 7.932027,12.822528 9.165408,11.395459 
	C11.366075,8.849203 13.780848,6.487997 16.429104,4.023274 
	C17.494202,3.609207 18.236290,3.221279 19.370657,2.904252 
	C20.821207,2.925591 21.879477,2.876029 23.271793,2.896709 
	C24.056990,2.930840 24.508142,2.894730 25.292852,2.911563 
	C26.074167,2.934273 26.521921,2.904040 27.305145,2.919418 
	C28.090225,2.939132 28.539835,2.913234 29.368561,2.936246 
	C30.508690,2.942199 31.269703,2.899240 32.360882,2.884340 
	C33.127365,2.274932 33.563683,1.637465 34.000000,1.000000 
	C34.000000,1.000000 34.500000,1.000000 34.750000,1.000000 
z"/>
<path fill="#4285F3" opacity="1.000000" stroke="none" 
	d="
M46.156944,48.008942 
	C44.496975,46.546238 42.837009,45.083534 41.014229,43.306889 
	C41.632198,40.581226 42.412983,38.169502 43.439133,34.999870 
	C40.003204,34.999870 37.228168,34.756233 34.512825,35.055038 
	C30.061159,35.544910 28.383114,33.728874 28.977978,29.409309 
	C29.135057,28.268667 29.020777,27.090656 29.552925,25.471592 
	C38.423527,24.985655 46.772305,24.957928 55.121082,24.930201 
	C55.121082,24.930201 55.562317,24.942698 55.781158,24.971348 
	C56.000000,25.444445 56.000000,25.888889 55.621750,26.727444 
	C54.866177,28.759613 54.488853,30.397673 54.100552,32.362865 
	C54.726383,33.126667 55.363190,33.563332 56.000000,34.000000 
	C56.000000,34.000000 56.000000,34.500000 55.660526,34.899467 
	C54.551941,36.441872 53.818092,37.610523 53.006992,38.722839 
	C50.740757,41.830681 48.442535,44.915211 46.156944,48.008942 
z"/>
<path fill="#FFFFFF" opacity="1.000000" stroke="none" 
	d="
M5.999249,40.164398 
	C9.314775,48.250748 15.286678,53.225971 23.865793,55.652416 
	C16.391642,56.000000 8.783284,56.000000 1.000000,56.000000 
	C1.000000,44.646259 1.000000,33.291786 1.305648,21.468660 
	C2.018826,21.000076 2.426356,21.000147 2.903469,21.462677 
	C2.982109,25.737505 2.637724,29.596188 3.128960,33.345379 
	C3.437900,35.703266 4.999574,37.897015 5.999249,40.164398 
z"/>
<path fill="#FFFFFF" opacity="1.000000" stroke="none" 
	d="
M45.999535,48.333618 
	C48.442535,44.915211 50.740757,41.830681 53.006992,38.722839 
	C53.818092,37.610523 54.551941,36.441872 55.660526,35.149467 
	C56.000000,41.926151 56.000000,48.852299 56.000000,56.000000 
	C49.314232,56.000000 42.626026,56.000000 35.468910,56.000000 
	C35.990429,55.337978 36.984783,54.681744 37.970524,54.012810 
	C40.596375,52.230892 43.218513,50.443508 45.999535,48.333618 
z"/>
<path fill="#FFFFFF" opacity="1.000000" stroke="none" 
	d="
M16.106094,4.049414 
	C13.780848,6.487997 11.366075,8.849203 9.165408,11.395459 
	C7.932027,12.822528 7.053180,14.556013 5.767765,16.589043 
	C5.043812,17.348099 4.566687,17.669550 3.372959,17.939857 
	C2.183072,17.815275 1.709787,17.741835 1.202596,17.555477 
	C1.168691,17.442558 1.000000,17.000000 1.000000,17.000000 
	C1.000000,11.747707 1.000000,6.495415 1.000000,1.000000 
	C5.347616,1.000000 9.699680,1.000000 14.528734,1.348606 
	C15.372515,2.481279 15.739305,3.265347 16.106094,4.049414 
z"/>
<path fill="#8EB6F8" opacity="1.000000" stroke="none" 
	d="
M54.111530,32.035732 
	C54.488853,30.397673 54.866177,28.759613 55.621750,27.060776 
	C56.000000,28.388889 56.000000,29.777779 55.684776,31.583551 
	C54.950214,32.012199 54.530872,32.023964 54.111530,32.035732 
z"/>
<path fill="#FFFFFF" opacity="1.000000" stroke="none" 
	d="
M16.429104,4.023274 
	C15.739305,3.265347 15.372515,2.481279 15.002863,1.348606 
	C15.750000,1.000000 16.500000,1.000000 17.709946,1.247347 
	C18.439388,1.940914 18.708883,2.387133 18.978376,2.833351 
	C18.236290,3.221279 17.494202,3.609207 16.429104,4.023274 
z"/>
<path fill="#FFFFFF" opacity="1.000000" stroke="none" 
	d="
M19.370657,2.904252 
	C18.708883,2.387133 18.439388,1.940914 18.084946,1.247347 
	C19.388889,1.000000 20.777779,1.000000 22.577059,1.304842 
	C22.970882,2.015279 22.954313,2.420873 22.937744,2.826468 
	C21.879477,2.876029 20.821207,2.925591 19.370657,2.904252 
z"/>
<path fill="#F1938C" opacity="1.000000" stroke="none" 
	d="
M32.030716,2.856281 
	C31.269703,2.899240 30.508690,2.942199 29.372776,2.623257 
	C28.998581,1.840905 28.999290,1.420452 29.000000,1.000000 
	C29.750000,1.000000 30.500000,1.000000 31.626089,1.309752 
	C32.011688,2.031763 32.021202,2.444022 32.030716,2.856281 
z"/>
<path fill="#FFFFFE" opacity="1.000000" stroke="none" 
	d="
M1.236501,17.668394 
	C1.709787,17.741835 2.183072,17.815275 3.182065,18.315514 
	C3.416477,19.494947 3.125182,20.247583 2.833886,21.000217 
	C2.426356,21.000147 2.018826,21.000076 1.305648,21.000004 
	C1.000000,20.250000 1.000000,19.500000 1.052917,18.287670 
	C1.105835,17.825342 1.236501,17.668394 1.236501,17.668394 
z"/>
<path fill="#71C287" opacity="1.000000" stroke="none" 
	d="
M28.989281,54.073540 
	C29.751156,54.051228 30.513033,54.028915 31.641945,54.372131 
	C32.005989,55.158436 32.002995,55.579220 32.000000,56.000000 
	C31.250000,56.000000 30.500000,56.000000 29.374836,55.678253 
	C28.996208,54.928852 28.992744,54.501198 28.989281,54.073540 
z"/>
<path fill="#F5A49D" opacity="1.000000" stroke="none" 
	d="
M32.360882,2.884340 
	C32.021202,2.444022 32.011688,2.031763 32.001091,1.309752 
	C32.444447,1.000000 32.888889,1.000000 33.666668,1.000000 
	C33.563683,1.637465 33.127365,2.274932 32.360882,2.884340 
z"/>
<path fill="#F39A93" opacity="1.000000" stroke="none" 
	d="
M28.666668,1.000000 
	C28.999290,1.420452 28.998581,1.840905 28.993660,2.574346 
	C28.539835,2.913234 28.090225,2.939132 27.317333,2.608741 
	C26.996033,1.834968 26.998016,1.417484 27.000000,1.000000 
	C27.444445,1.000000 27.888889,1.000000 28.666668,1.000000 
z"/>
<path fill="#F6AEA8" opacity="1.000000" stroke="none" 
	d="
M26.666664,1.000000 
	C26.998016,1.417484 26.996033,1.834968 26.981865,2.563129 
	C26.521921,2.904040 26.074167,2.934273 25.309494,2.603399 
	C24.995050,1.828195 24.997524,1.414097 25.000000,1.000000 
	C25.444445,1.000000 25.888887,1.000000 26.666664,1.000000 
z"/>
<path fill="#F9CCC9" opacity="1.000000" stroke="none" 
	d="
M24.666668,1.000000 
	C24.997524,1.414097 24.995050,1.828195 24.975933,2.550456 
	C24.508142,2.894730 24.056990,2.930840 23.271791,2.896709 
	C22.954313,2.420873 22.970882,2.015279 22.993725,1.304842 
	C23.444445,1.000000 23.888889,1.000000 24.666668,1.000000 
z"/>
<path fill="#A6C5F9" opacity="1.000000" stroke="none" 
	d="
M54.100552,32.362865 
	C54.530872,32.023964 54.950214,32.012199 55.684776,32.000217 
	C56.000000,32.444447 56.000000,32.888889 56.000000,33.666668 
	C55.363190,33.563332 54.726383,33.126667 54.100552,32.362865 
z"/>
<path fill="#90D0A1" opacity="1.000000" stroke="none" 
	d="
M25.333332,56.000000 
	C25.436026,55.362526 25.872051,54.725052 26.650753,54.407585 
	C26.995621,55.151730 26.997810,55.575863 27.000000,56.000000 
	C26.555555,56.000000 26.111111,56.000000 25.333332,56.000000 
z"/>
<path fill="#79C58E" opacity="1.000000" stroke="none" 
	d="
M27.333332,56.000000 
	C26.997810,55.575863 26.995621,55.151730 26.979694,54.411911 
	C27.415916,54.069553 27.865877,54.042885 28.652557,54.044876 
	C28.992744,54.501198 28.996208,54.928852 28.999836,55.678253 
	C28.555555,56.000000 28.111111,56.000000 27.333332,56.000000 
z"/>
<path fill="#82C995" opacity="1.000000" stroke="none" 
	d="
M32.333332,56.000000 
	C32.002995,55.579220 32.005989,55.158436 32.020119,54.423523 
	C32.667831,54.522217 33.304409,54.935043 33.970490,55.673935 
	C33.555553,56.000000 33.111111,56.000000 32.333332,56.000000 
z"/>
<path fill="#FABB06" opacity="1.000000" stroke="none" 
	d="
M1.202596,17.555477 
	C1.236501,17.668394 1.105835,17.825342 1.052917,17.912670 
	C1.000000,18.000000 1.000000,17.500000 1.000000,17.250000 
	C1.000000,17.000000 1.168691,17.442558 1.202596,17.555477 
z"/>
<path fill="#FABB06" opacity="1.000000" stroke="none" 
	d="
M2.903469,21.462677 
	C3.125182,20.247583 3.416477,19.494947 3.898666,18.366657 
	C4.566687,17.669550 5.043812,17.348099 5.751753,16.944098 
	C8.425823,18.324068 10.869079,19.786591 13.696585,21.636536 
	C14.054074,25.664068 14.027311,29.304176 14.000797,33.389465 
	C11.542883,35.838615 9.084722,37.842583 6.312904,40.005474 
	C4.999574,37.897015 3.437900,35.703266 3.128960,33.345379 
	C2.637724,29.596188 2.982109,25.737505 2.903469,21.462677 
z"/>
<path fill="#659CF4" opacity="1.000000" stroke="none" 
	d="
M54.909164,24.584045 
	C46.772305,24.957928 38.423527,24.985655 29.617702,25.026724 
	C29.653496,24.375057 30.138527,23.137762 30.640356,23.130915 
	C38.125816,23.028736 45.613785,23.066183 53.100052,23.159544 
	C53.636852,23.166239 54.165051,23.862337 54.909164,24.584045 
z"/>
</svg>